<?xml version="1.0" standalone="no"?>
<!DOCTYPE svg PUBLIC "-//W3C//DTD SVG 20010904//EN"
 "http://www.w3.org/TR/2001/REC-SVG-20010904/DTD/svg10.dtd">
<svg version="1.0" xmlns="http://www.w3.org/2000/svg"
 width="150.000000pt" height="150.000000pt" viewBox="0 0 150.000000 150.000000"
 preserveAspectRatio="xMidYMid meet">
<metadata>
Created by potrace 1.11, written by Peter Selinger 2001-2013
</metadata>
<g transform="translate(0.000000,150.000000) scale(0.100000,-0.100000)"
fill="#000000" stroke="none">
<path d="M0 750 l0 -750 750 0 750 0 0 750 0 750 -750 0 -750 0 0 -750z m587
293 c46 -22 63 -61 64 -146 1 -78 -17 -132 -47 -144 -12 -5 -11 -10 10 -32 31
-33 36 -53 40 -183 l3 -108 -48 0 c-40 0 -49 3 -50 18 -1 9 -3 59 -5 111 -3
106 -16 131 -68 131 l-32 0 1 -120 c0 -66 -2 -125 -6 -131 -3 -6 -26 -9 -50
-7 l-43 3 -1 305 c0 168 1 309 3 313 6 14 197 6 229 -10z m368 -112 c-1 -72 2
-128 5 -126 4 2 33 60 65 129 l59 126 48 0 c26 0 48 -2 48 -5 0 -5 -92 -193
-116 -237 -7 -14 -14 -32 -14 -38 0 -7 29 -86 65 -177 36 -90 65 -166 65 -169
0 -2 -22 -4 -49 -4 l-49 0 -36 93 c-19 50 -41 107 -47 126 l-12 34 -16 -29
c-10 -20 -15 -58 -16 -124 l0 -95 -48 -3 c-26 -2 -48 1 -48 5 -1 4 -2 146 -3
316 l-1 307 50 0 51 0 -1 -129z"/>
<path d="M459 968 c-1 -2 -2 -45 -3 -95 l-2 -93 32 0 c37 0 63 22 65 53 4 66
-3 113 -18 125 -14 10 -71 18 -74 10z"/>
</g>
</svg>
