<?xml version="1.0" encoding="UTF-8" standalone="no"?>
<!-- Created with Inkscape (http://www.inkscape.org/) -->

<svg
   xmlns:dc="http://purl.org/dc/elements/1.1/"
   xmlns:cc="http://creativecommons.org/ns#"
   xmlns:rdf="http://www.w3.org/1999/02/22-rdf-syntax-ns#"
   xmlns:svg="http://www.w3.org/2000/svg"
   xmlns="http://www.w3.org/2000/svg"
   xmlns:sodipodi="http://sodipodi.sourceforge.net/DTD/sodipodi-0.dtd"
   xmlns:inkscape="http://www.inkscape.org/namespaces/inkscape"
   id="svg2"
   version="1.1"
   inkscape:version="0.91 r13725"
   xml:space="preserve"
   width="745.75739"
   height="119.92125"
   viewBox="0 0 745.75739 119.92125"
   sodipodi:docname="Conforama (depuis 2012).svg"><metadata
     id="metadata8"><rdf:RDF><cc:Work
         rdf:about=""><dc:format>image/svg+xml</dc:format><dc:type
           rdf:resource="http://purl.org/dc/dcmitype/StillImage" /><dc:title></dc:title></cc:Work></rdf:RDF></metadata><defs
     id="defs6"><clipPath
       clipPathUnits="userSpaceOnUse"
       id="clipPath16"><path
         d="m -1.22e-4,-0.003906 907.082002,0 0,1133.847006 -907.082002,0 0,-1133.847006 z"
         id="path18"
         inkscape:connector-curvature="0"
         style="clip-rule:evenodd" /></clipPath><clipPath
       clipPathUnits="userSpaceOnUse"
       id="clipPath22"><path
         d="m -1.22e-4,-0.003906 907.082002,0 0,1133.847006 -907.082002,0 0,-1133.847006 z"
         id="path24"
         inkscape:connector-curvature="0"
         style="clip-rule:evenodd" /></clipPath><clipPath
       clipPathUnits="userSpaceOnUse"
       id="clipPath28"><path
         d="m 0.029999,1133.843 907.020001,0 0,-1133.813 -907.020001,0 0,1133.813 z"
         id="path30"
         inkscape:connector-curvature="0" /></clipPath><clipPath
       clipPathUnits="userSpaceOnUse"
       id="clipPath38"><path
         d="m 159.148,422.602 448.691,0 0,475.197 -448.691,0 0,-475.197 z"
         id="path40"
         inkscape:connector-curvature="0" /></clipPath><clipPath
       clipPathUnits="userSpaceOnUse"
       id="clipPath44"><path
         d="m 583.955,897.61 11.519,0 0,-0.72 -0.24,0 0,-0.24 -0.24,0 0,-0.24 -0.24,0 0,-0.239 -2.16,0 0,-0.24 -1.2,0 0,-0.24 -0.24,0 0,-0.96 0.48,0 0,-0.48 0.48,0 0,-0.24 0.24,0 0,-0.479 0.48,0 0,-0.24 0.24,0 0,-0.24 0.24,0 0,-0.48 0.24,0 0,-0.24 0.24,0 0,-0.24 0.24,0 0,-0.24 0.24,0 0,-1.439 -0.24,0 0,-0.24 -0.24,0 0,-0.24 -0.24,0 0,-0.24 0.24,0 0,-0.48 0.24,0 0,-0.24 0.24,0 0,-0.239 0.24,0 0,-0.24 0.24,0 0,-3.119 -0.24,0 0,-0.48 0.24,0 0,-1.199 -0.24,0 0,-0.24 -0.24,0 0,-0.24 -0.24,0 0,-0.48 -0.24,0 0,-0.96 -0.24,0 0,-0.479 -0.24,0 0,-0.72 -0.24,0 0,-0.24 -0.24,0 0,-0.48 -0.24,0 0,-0.24 -0.24,0 0,-0.719 -0.24,0 0,-0.24 -0.24,0 0,-0.72 -0.24,0 0,-0.24 -0.24,0 0,-0.72 -0.24,0 0,-0.24 -0.24,0 0,-0.719 -0.24,0 0,-0.24 -0.24,0 0,-0.24 -0.24,0 0,-0.24 -0.24,0 0,-0.48 -0.24,0 0,-0.719 -0.24,0 0,-0.24 -0.24,0 0,-0.24 -0.24,0 0,-0.72 -0.24,0 0,-0.24 -0.24,0 0,-0.48 -0.24,0 0,-0.24 -0.24,0 0,-0.239 -0.24,0 0,-0.48 -0.24,0 0,-0.24 -0.24,0 0,-0.24 -0.24,0 0,-0.48 -0.239,0 0,-0.24 -0.24,0 0,-0.24 -0.24,0 0,-0.24 -0.24,0 0,-0.479 -0.24,0 0,-0.24 -0.24,0 0,-0.48 -0.24,0 0,-0.24 -0.24,0 0,-0.24 -0.24,0 0,-0.24 -0.48,0 0,-0.24 0.24,0 0,-1.199 -0.24,0 0,-0.24 -0.24,0 0,-0.24 -0.24,0 0,-0.24 -0.72,0 0,-0.24 -0.24,0 0,-0.24 -0.24,0 0,-0.24 -0.24,0 0,-0.24 -0.24,0 0,-0.239 -0.24,0 0,-0.24 -0.24,0 0,-0.24 -0.24,0 0,-0.24 -0.24,0 0,-0.24 -0.24,0 0,-0.24 -0.24,0 0,-0.24 -0.24,0 0,-0.24 -0.24,0 0,-0.24 -0.24,0 0,-0.959 -0.24,0 0,-0.24 -0.24,0 0,-0.24 -0.24,0 0,-0.24 -0.24,0 0,-0.24 -0.24,0 0,-0.24 -0.24,0 0,-0.24 -0.24,0 0,-0.24 -0.24,0 0,-0.24 -0.24,0 0,-0.239 -0.24,0 0,-0.24 -0.239,0 0,-0.24 -0.24,0 0,-0.24 -0.24,0 0,-0.24 -0.24,0 0,-0.24 -0.24,0 0,-0.24 -0.24,0 0,-0.24 -0.24,0 0,-0.24 -0.24,0 0,-0.24 -0.24,0 0,-0.239 -0.24,0 0,-0.24 -0.24,0 0,-0.24 -0.24,0 0,-0.24 -0.24,0 0,-0.24 -0.24,0 0,-0.24 -0.24,0 0,-0.24 -0.24,0 0,-0.24 -0.24,0 0,-0.24 -0.24,0 0,-0.24 -0.24,0 0,-0.239 -0.24,0 0,-0.24 -0.24,0 0,-0.24 -0.24,0 0,-0.24 -0.24,0 0,-0.24 -0.24,0 0,-0.24 -0.24,0 0,-0.24 -0.24,0 0,-0.24 -0.24,0 0,-0.24 -0.24,0 0,-0.24 -0.24,0 0,-0.239 -0.24,0 0,-0.24 -0.24,0 0,-0.24 -0.24,0 0,-0.24 -0.24,0 0,-0.24 0.24,0 0,-1.44 -0.24,0 0,-0.239 -0.239,0 0,-0.24 -0.24,0 0,-0.24 -0.24,0 0,-1.44 -0.24,0 0,-0.24 -0.24,0 0,-0.239 -0.24,0 0,-0.24 -1.2,0 0,-1.2 -0.24,0 0,-0.24 -0.24,0 0,-0.24 -0.24,0 0,-0.24 -1.2,0 0,-1.199 -0.24,0 0,-0.24 -0.24,0 0,-0.24 -0.24,0 0,-0.24 -1.2,0 0,-1.199 -0.24,0 0,-0.24 -0.24,0 0,-0.24 -0.24,0 0,-0.24 -1.2,0 0,-1.2 -0.24,0 0,-0.239 -0.24,0 0,-0.24 -0.24,0 0,-0.24 -1.199,0 0,-1.2 -0.24,0 0,-0.24 -0.24,0 0,-0.24 -0.24,0 0,-0.239 -1.2,0 0,-1.2 -0.24,0 0,-0.24 -0.24,0 0,-0.24 -0.24,0 0,-0.24 -1.2,0 0,-1.199 -0.24,0 0,-0.24 -0.24,0 0,-0.24 -0.24,0 0,-0.24 -1.2,0 0,-1.199 -0.24,0 0,-0.24 -0.24,0 0,-0.24 -0.24,0 0,-0.24 -1.2,0 0,-1.2 -0.24,0 0,-0.24 -0.239,0 0,-0.239 -0.24,0 0,-0.24 -1.2,0 0,-1.2 -0.24,0 0,-0.24 -0.24,0 0,-0.24 -0.24,0 0,-0.24 -1.2,0 0,-1.199 -0.24,0 0,-0.24 -0.24,0 0,-0.24 -0.24,0 0,-0.24 -1.2,0 0,-1.199 -0.24,0 0,-0.24 -0.24,0 0,-0.24 -0.24,0 0,-0.24 -1.2,0 0,-1.2 -0.24,0 0,-0.239 -0.24,0 0,-0.48 0.24,0 0,-0.24 0.24,0 0,-0.24 0.24,0 0,-1.2 -0.24,0 0,-0.239 -0.24,0 0,-0.24 -0.24,0 0,-0.24 -0.24,0 0,-1.44 0.24,0 0,-0.24 0.24,0 0,-0.239 1.2,0 0,-0.24 0.24,0 0,-0.24 0.24,0 0,-0.24 0.24,0 0,-1.2 -0.24,0 0,-0.24 -0.24,0 0,-0.479 0.24,0 0,-0.48 0.24,0 0,-0.48 0.24,0 0,-0.48 0.24,0 0,-0.48 0.24,0 0,-0.479 0.72,0 0,-0.24 0.24,0 0,-0.24 0.24,0 0,-0.24 0.24,0 0,-1.2 0.24,0 0,-0.24 0.24,0 0,-0.239 0.24,0 0,-0.24 0.24,0 0,-0.72 0.24,0 0,-0.24 0.24,0 0,-0.48 0.72,0 0,0.24 1.2,0 0,-0.24 0.239,0 0,-0.24 0.24,0 0,-0.24 0.24,0 0,-1.199 -0.24,0 0,-0.24 -0.24,0 0,-0.24 -0.239,0 0,-0.24 0.239,0 0,-0.24 0.24,0 0,-0.24 0.24,0 0,-0.719 0.48,0 0,-0.48 0.72,0 0,-0.24 0.24,0 0,-0.24 0.24,0 0,-0.24 0.24,0 0,-1.199 -0.24,0 0,-0.48 -0.24,0 0,-1.2 0.24,0 0,-0.479 0.72,0 0,-0.24 0.24,0 0,-0.24 0.24,0 0,-0.24 0.24,0 0,-0.72 0.24,0 0,-0.24 0.24,0 0,-0.24 0.24,0 0,-2.639 -0.24,0 0,-0.239 -0.24,0 0,-0.24 -0.24,0 0,-105.558 31.677,0 0,-0.24 0.239,0 0,-0.24 0.48,0 0,0.24 1.44,0 0,-0.24 0.24,0 0,-0.24 0.24,0 0,-0.24 0.24,0 0,-1.679 0.24,0 0,-0.24 0.24,0 0,-0.24 0.24,0 0,-1.2 -0.24,0 0,-0.24 0.72,0 0,-0.239 0.24,0 0,-0.24 0.24,0 0,-0.24 0.24,0 0,-1.44 0.24,0 0,-1.199 0.24,0 0,-0.24 0.24,0 0,-0.24 0.24,0 0,-0.72 0.24,0 0,-0.48 0.24,0 0,-0.479 0.24,0 0,-0.48 0.24,0 0,-0.24 0.24,0 0,-0.48 0.24,0 0,-0.48 0.72,0 0,-0.24 0.24,0 0,-0.239 0.24,0 0,-0.24 0.24,0 0,-0.96 0.24,0 0,-0.24 0.24,0 0,-0.24 0.24,0 0,-0.24 0.239,0 0,-1.439 0.96,0 0,-0.24 0.24,0 0,-0.24 0.24,0 0,-0.24 0.24,0 0,-1.199 -0.24,0 0,-0.24 -0.24,0 0,-0.24 0.24,0 0,-0.72 0.24,0 0,-0.48 0.24,0 0,-0.239 0.24,0 0,-0.48 0.48,0 0,-0.72 0.24,0 0,-0.24 0.24,0 0,-0.24 0.24,0 0,-0.72 0.24,0 0,-0.239 0.24,0 0,-0.48 0.24,0 0,-0.48 0.24,0 0,-0.72 0.24,0 0,0.24 0.24,0 0,0.24 1.2,0 0,-0.48 0.48,0 0,-0.24 0.24,0 0,-0.24 0.24,0 0,-0.24 0.24,0 0,-1.199 -0.24,0 0,-0.48 0.24,0 0,-1.199 0.24,0 0,-0.24 0.24,0 0,-0.24 0.24,0 0,-1.2 0.719,0 0,-0.239 0.24,0 0,-0.24 0.24,0 0,-0.24 0.24,0 0,-0.96 0.72,0 0,-0.24 0.24,0 0,-0.24 0.24,0 0,-0.24 0.24,0 0,-1.439 -0.24,0 0,-0.24 -0.24,0 0,-0.24 -0.24,0 0,-0.24 0.24,0 0,-0.24 0.24,0 0,-0.24 0.24,0 0,-0.719 0.24,0 0,-0.24 0.24,0 0,-1.2 -0.24,0 0,-0.24 -0.24,0 0,-40.063 -0.24,0 0,-0.24 -0.24,0 0,-0.24 -0.24,0 0,-0.24 -19.438,0 0,-0.24 0.24,0 0,-1.199 0.24,0 0,-0.24 0.24,0 0,-0.24 0.24,0 0,-0.72 0.24,0 0,-0.24 0.24,0 0,-0.48 0.24,0 0,-0.24 0.24,0 0,-0.239 0.24,0 0,-0.24 0.24,0 0,-1.2 0.24,0 0,-0.48 0.48,0 0,-0.24 0.24,0 0,-0.239 0.24,0 0,-0.24 0.24,0 0,-0.48 0.72,0 0,-0.24 0.24,0 0,-0.24 0.24,0 0,-0.24 0.24,0 0,-1.679 0.72,0 0,-0.24 0.24,0 0,-0.24 0.24,0 0,-0.24 0.24,0 0,-0.72 0.24,0 0,-0.239 0.24,0 0,-0.96 0.48,0 0,-0.24 0.24,0 0,-0.24 0.24,0 0,-0.24 0.24,0 0,-1.199 -0.24,0 0,-0.24 -0.24,0 0,-0.72 1.439,0 0,-0.48 0.96,0 0,-0.24 0.24,0 0,-0.24 0.24,0 0,-0.239 0.24,0 0,-1.44 -0.24,0 0,-0.24 -0.24,0 0,-1.439 0.48,0 0,-0.72 0.48,0 0,-0.48 0.24,0 0,-0.719 0.48,0 0,-0.72 0.24,0 0,-0.48 1.68,0 0,-0.24 0.24,0 0,-0.24 0.24,0 0,-0.24 0.24,0 0,-1.199 -0.24,0 0,-0.24 -0.24,0 0,-0.72 0.72,0 0,-0.24 0.48,0 0,-0.239 0.24,0 0,-0.24 0.24,0 0,-0.24 0.24,0 0,-1.2 0.24,0 0,-0.24 0.24,0 0,-1.199 -0.24,0 0,-0.24 -0.24,0 0,-0.96 0.24,0 0,-0.48 0.96,0 0,-0.239 0.239,0 0,-0.24 0.24,0 0,-0.24 0.24,0 0,-1.68 -0.24,0 0,-0.24 -0.24,0 0,-0.239 -0.239,0 0,-0.24 0.239,0 0,-0.72 0.24,0 0,-0.24 0.24,0 0,-1.679 0.96,0 0,-0.24 0.24,0 0,-0.24 0.24,0 0,-0.24 0.24,0 0,-0.96 0.24,0 0,-0.239 0.24,0 0,-1.44 0.24,0 0,-2.159 -0.24,0 0,-1.439 -0.24,0 0,-0.24 -0.24,0 0,-1.68 0.24,0 0,-1.439 0.24,0 0,-0.24 0.24,0 0,-1.199 -0.24,0 0,-1.92 0.24,0 0,-1.199 -0.24,0 0,-0.96 0.24,0 0,-2.159 -0.24,0 0,-0.24 -0.24,0 0,-0.24 -0.24,0 0,-0.24 -1.44,0 0,-0.239 -0.24,0 0,-0.24 -1.199,0 0,0.24 -0.24,0 0,0.239 -32.637,0 0,-0.239 0.24,0 0,-0.24 0.24,0 0,-0.24 0.24,0 0,-0.24 0.24,0 0,-0.24 0.24,0 0,0.24 0.24,0 0,0.24 1.2,0 0,-0.24 0.24,0 0,-0.24 0.24,0 0,-0.24 0.24,0 0,-1.2 -0.24,0 0,-0.239 -0.24,0 0,-0.24 -0.24,0 0,-0.48 0.48,0 0,-0.24 0.24,0 0,-0.24 0.96,0 0,-0.24 0.48,0 0,0.24 1.44,0 0,-0.24 0.239,0 0,-0.48 0.48,0 0,-0.24 0.24,0 0,-0.239 0.24,0 0,-0.24 0.24,0 0,-1.2 -0.24,0 0,-0.24 -0.24,0 0,-0.24 -0.24,0 0,-0.48 0.24,0 0,-0.239 0.24,0 0,-0.72 0.48,0 0,-0.24 0.24,0 0,-0.24 0.24,0 0,-0.24 0.24,0 0,-0.48 0.72,0 0,-0.24 0.24,0 0,-0.239 0.24,0 0,-0.24 0.24,0 0,-0.96 0.72,0 0,-0.24 0.24,0 0,-0.48 0.96,0 0,-0.24 0.24,0 0,-0.239 0.24,0 0,-0.24 0.24,0 0,-1.2 0.24,0 0,-0.24 0.24,0 0,-0.24 0.24,0 0,-1.199 -0.24,0 0,-0.24 -0.24,0 0,-0.72 0.24,0 0,-0.24 1.2,0 0,-0.24 0.24,0 0,-0.24 0.24,0 0,-0.239 0.24,0 0,-1.2 -0.24,0 0,-0.24 -0.24,0 0,-0.24 -0.24,0 0,-0.48 0.24,0 0,-0.239 0.24,0 0,-0.72 0.24,0 0,-0.48 0.959,0 0,-0.24 0.24,0 0,-0.24 0.24,0 0,-0.24 0.24,0 0,-1.679 0.24,0 0,-1.199 -0.24,0 0,-0.24 -0.24,0 0,-0.24 0.24,0 0,-0.24 0.24,0 0,-0.24 0.24,0 0,-1.2 -0.24,0 0,-1.439 0.24,0 0,-1.439 0.48,0 0,-0.48 0.72,0 0,-0.24 0.24,0 0,-0.24 0.24,0 0,-0.24 0.24,0 0,-1.199 -0.24,0 0,-0.24 -0.24,0 0,-0.24 -0.24,0 0,-0.24 -0.72,0 0,-0.24 0.24,0 0,-0.24 0.48,0 0,-0.24 0.24,0 0,-0.24 0.24,0 0,-0.24 1.2,0 0,-0.479 0.48,0 0,-0.48 0.24,0 0,-0.24 0.24,0 0,-0.24 0.24,0 0,-0.24 0.24,0 0,-0.72 0.24,0 0,-0.24 0.24,0 0,-0.239 0.24,0 0,0.239 0.24,0 0,0.24 1.2,0 0,-0.24 0.24,0 0,-0.239 0.24,0 0,-0.24 0.24,0 0,-1.2 0.719,0 0,-0.24 0.24,0 0,-0.24 0.24,0 0,-0.24 0.24,0 0,-1.439 0.24,0 0,-0.24 0.24,0 0,-0.48 0.48,0 0,-0.24 1.2,0 0,-0.24 0.24,0 0,-0.239 0.24,0 0,-0.24 0.24,0 0,-1.2 0.24,0 0,-0.24 0.24,0 0,-0.959 0.48,0 0,-0.24 0.24,0 0,-0.24 0.24,0 0,-0.24 0.24,0 0,-1.439 0.24,0 0,-0.24 0.48,0 0,-0.48 0.24,0 0,-0.48 0.48,0 0,-0.24 1.2,0 0,-0.24 0.24,0 0,-0.24 0.239,0 0,-0.24 0.24,0 0,-1.439 -0.24,0 0,-0.24 0.24,0 0,-0.24 0.24,0 0,-0.24 0.24,0 0,-0.24 0.24,0 0,-2.159 -0.24,0 0,-0.24 0.24,0 0,-0.24 1.2,0 0,-0.239 0.24,0 0,-0.24 0.24,0 0,-0.24 0.24,0 0,-1.2 -0.24,0 0,-0.24 -0.24,0 0,-0.24 0.24,0 0,-1.439 0.24,0 0,-32.627 -0.24,0 0,-1.919 -0.24,0 0,-0.24 -0.24,0 0,-0.959 -0.24,0 0,-0.24 0.24,0 0,-0.24 0.24,0 0,-0.24 0.24,0 0,-0.24 0.24,0 0,-1.2 -0.24,0 0,-0.239 -0.24,0 0,-0.24 0.24,0 0,-1.2 -0.24,0 0,-0.24 -0.24,0 0,-0.24 -0.24,0 0,-0.24 -1.2,0 0,-0.239 -0.24,0 0,-0.48 -0.24,0 0,-0.96 0.24,0 0,-0.24 0.24,0 0,-0.24 0.24,0 0,-2.399 -0.24,0 0,-0.24 -0.24,0 0,-0.24 -0.24,0 0,-0.239 -1.199,0 0,0.239 -0.48,0 0,-0.479 -0.24,0 0,-0.24 0.24,0 0,-0.24 0.24,0 0,-0.24 0.24,0 0,-1.679 -0.24,0 0,-0.24 -0.24,0 0,-0.24 -0.24,0 0,-0.24 -0.96,0 0,-0.48 -0.24,0 0,-0.24 -0.24,0 0,-0.24 -0.24,0 0,-0.24 -0.24,0 0,-0.959 -0.24,0 0,-0.48 0.24,0 0,-0.24 0.24,0 0,-0.24 0.24,0 0,-1.199 -0.24,0 0,-0.24 -0.24,0 0,-0.24 -0.24,0 0,-0.24 -1.2,0 0,0.24 -0.96,0 0,-0.24 -0.24,0 0,-0.24 -0.24,0 0,-0.24 -0.24,0 0,-0.48 -0.24,0 0,-0.24 -0.24,0 0,-0.239 0.24,0 0,-1.2 -0.24,0 0,-0.24 -0.24,0 0,-0.24 -0.24,0 0,-0.24 -0.959,0 0,-0.479 -0.24,0 0,-0.72 -0.24,0 0,-0.24 -0.24,0 0,-0.24 -0.24,0 0,-0.24 -0.96,0 0,-0.24 -0.24,0 0,-0.24 -0.24,0 0,-0.24 -0.24,0 0,-0.239 -0.24,0 0,-0.24 0.24,0 0,-0.24 0.24,0 0,-0.24 0.24,0 0,-0.24 0.24,0 0,-1.2 -0.24,0 0,-0.24 -0.24,0 0,-0.239 -0.24,0 0,-0.24 -0.24,0 0,-0.24 -0.24,0 0,-0.24 -1.2,0 0,0.24 -0.24,0 0,0.24 -0.24,0 0,0.24 -0.24,0 0,0.239 -0.24,0 0,-0.239 -0.24,0 0,-0.24 -0.24,0 0,-0.24 -0.24,0 0,-0.24 -0.48,0 0,-0.24 -0.24,0 0,-0.24 -0.24,0 0,-0.24 -0.24,0 0,-0.24 -0.24,0 0,-0.24 -0.48,0 0,-0.24 -0.24,0 0,-0.239 -0.24,0 0,-0.24 -0.24,0 0,-0.24 -0.48,0 0,-0.24 -0.239,0 0,-0.24 -0.48,0 0,-0.24 -0.24,0 0,-1.439 -0.24,0 0,-0.24 -0.24,0 0,-0.24 -0.24,0 0,-0.24 -1.2,0 0,0.24 -0.48,0 0,-0.24 -0.24,0 0,-0.24 -0.24,0 0,-0.24 -0.24,0 0,-0.24 -1.44,0 0,-0.24 -0.48,0 0,-0.24 -0.48,0 0,-0.239 -0.48,0 0,-0.24 -0.48,0 0,-0.24 -0.48,0 0,-0.24 -0.48,0 0,-0.24 -0.48,0 0,-0.24 -0.24,0 0,-0.48 -0.24,0 0,-0.48 -0.239,0 0,-0.239 -0.24,0 0,-0.24 -0.24,0 0,-0.24 -0.72,0 0,-0.24 -1.2,0 0,0.24 -0.24,0 0,-0.96 -0.24,0 0,-0.24 -0.24,0 0,-0.24 -0.24,0 0,-0.24 -0.24,0 0,-0.24 -0.24,0 0,-0.239 -1.44,0 0,0.239 -0.24,0 0,0.24 -0.24,0 0,0.24 -0.48,0 0,-0.24 -1.2,0 0,0.24 -0.719,0 0,-0.24 -0.24,0 0,-0.24 -0.24,0 0,-0.239 -1.2,0 0,0.239 -0.24,0 0,-0.239 -0.24,0 0,-0.24 -0.24,0 0,-0.24 -0.24,0 0,-0.24 -0.24,0 0,-0.24 -0.96,0 0,-0.24 -0.24,0 0,-0.24 -0.48,0 0,-0.24 -2.88,0 0,0.24 -0.24,0 0,0.24 -1.44,0 0,-0.24 -1.439,0 0,-0.24 -26.397,0 0,0.24 -1.2,0 0,-0.24 -1.68,0 0,0.24 -0.24,0 0,0.24 -0.72,0 0,-0.24 -0.24,0 0,-0.24 -2.16,0 0,0.24 -0.24,0 0,0.24 -0.24,0 0,0.24 -0.48,0 0,0.24 -0.24,0 0,0.24 -1.2,0 0,0.24 -0.24,0 0,0.24 -0.24,0 0,0.239 -1.199,0 0,0.24 -0.96,0 0,-0.24 -0.24,0 0,-0.239 -1.68,0 0,0.239 -0.24,0 0,0.24 -0.72,0 0,0.24 -0.72,0 0,0.24 -0.24,0 0,0.24 -0.24,0 0,0.24 -0.24,0 0,0.72 -0.48,0 0,0.24 -0.96,0 0,0.24 -0.719,0 0,0.239 -0.24,0 0,-0.239 -0.24,0 0,-0.24 -0.24,0 0,-0.24 -1.92,0 0,0.24 -0.24,0 0,0.24 -0.24,0 0,0.239 -0.24,0 0,1.2 0.24,0 0,0.24 -1.2,0 0,0.24 -0.24,0 0,0.24 -0.72,0 0,-0.24 -1.2,0 0,0.24 -0.24,0 0,0.24 -0.24,0 0,0.239 -0.24,0 0,1.2 -0.72,0 0,0.24 -0.96,0 0,0.24 -0.239,0 0,0.24 -0.24,0 0,0.24 -0.24,0 0,0.479 -0.48,0 0,0.24 -0.24,0 0,0.24 -1.68,0 0,-0.24 -0.24,0 0,-0.24 -1.2,0 0,0.24 -0.24,0 0,0.24 -0.24,0 0,0.24 -0.24,0 0,0.48 -0.48,0 0,1.199 0.24,0 0,0.24 0.24,0 0,0.24 0.24,0 0,0.24 -0.48,0 0,0.24 -0.48,0 0,0.24 -0.24,0 0,0.24 -0.24,0 0,0.24 -0.24,0 0,0.24 -1.68,0 0,0.239 -0.24,0 0,0.24 -0.239,0 0,0.24 -0.24,0 0,0.72 -0.48,0 0,0.24 -0.24,0 0,0.24 -0.48,0 0,0.24 -0.24,0 0,0.48 -0.24,0 0,0.719 -0.24,0 0,0.24 -0.96,0 0,0.24 -0.24,0 0,0.24 -0.24,0 0,0.24 -0.24,0 0,0.72 -0.24,0 0,0.239 -0.48,0 0,0.24 -0.24,0 0,0.24 -0.24,0 0,0.24 -0.96,0 0,0.24 -0.24,0 0,0.24 -0.24,0 0,0.24 -0.24,0 0,1.199 0.24,0 0,0.24 0.24,0 0,0.24 0.24,0 0,0.48 -0.24,0 0,0.24 -0.24,0 0,-0.24 -1.2,0 0,0.24 -0.24,0 0,0.24 -0.24,0 0,0.24 -0.24,0 0,1.439 0.24,0 0,0.96 -1.2,0 0,0.24 -0.239,0 0,0.24 -0.24,0 0,0.239 -0.24,0 0,1.2 0.24,0 0,0.24 -0.24,0 0,0.24 -0.24,0 0,0.24 -0.24,0 0,1.199 -0.48,0 0,0.24 -0.72,0 0,0.24 -0.24,0 0,0.24 -0.24,0 0,0.24 -0.24,0 0,1.199 0.24,0 0,1.2 -0.24,0 0,0.24 -0.24,0 0,0.48 -0.24,0 0,0.479 -0.24,0 0,0.24 -0.24,0 0,0.48 -0.24,0 0,-0.24 -0.24,0 0,-0.24 -0.24,0 0,-0.24 -1.2,0 0,0.24 -0.24,0 0,0.24 -0.24,0 0,0.24 -0.24,0 0,1.2 0.24,0 0,0.239 -0.24,0 0,0.24 -0.24,0 0,1.44 -1.2,0 0,0.24 -0.24,0 0,0.24 -0.24,0 0,0.239 -0.24,0 0,1.2 0.24,0 0,0.72 0.24,0 0,0.24 0.24,0 0,1.199 -0.24,0 0,0.24 -0.959,0 0,0.24 -0.24,0 0,0.24 -0.24,0 0,0.24 -0.24,0 0,1.199 0.24,0 0,0.72 -0.24,0 0,0.24 -0.24,0 0,0.48 -0.24,0 0,0.24 -1.2,0 0,0.239 -0.24,0 0,0.24 -0.24,0 0,0.24 -0.24,0 0,1.2 0.24,0 0,0.24 -1.2,0 0,0.24 -0.24,0 0,0.239 -0.24,0 0,0.24 -0.24,0 0,0.48 -0.48,0 0,1.2 0.24,0 0,0.24 0.24,0 0,0.239 0.24,0 0,0.96 -0.24,0 0,0.48 -0.24,0 0,0.24 -0.24,0 0,0.48 -0.24,0 0,0.239 -0.48,0 0,0.96 -0.24,0 0,0.48 -0.24,0 0,0.48 -0.24,0 0,0.48 -0.24,0 0,0.239 -0.24,0 0,0.24 -0.96,0 0,0.24 -0.24,0 0,0.24 -0.24,0 0,0.24 -0.239,0 0,0.96 -0.24,0 0,-0.24 -1.2,0 0,0.24 -0.24,0 0,0.24 -0.24,0 0,0.239 -0.24,0 0,1.2 0.24,0 0,0.24 0.24,0 0,0.24 0.24,0 0,0.24 0.48,0 0,0.479 -0.24,0 0,0.48 -0.24,0 0,0.24 -0.48,0 0,0.24 -0.24,0 0,1.2 -0.24,0 0,0.479 -0.24,0 0,0.48 -0.24,0 0,0.48 -0.24,0 0,0.48 -0.24,0 0,0.48 -0.24,0 0,0.479 -1.2,0 0,0.24 -0.24,0 0,0.24 -0.24,0 0,0.24 -0.24,0 0,1.2 0.24,0 0,0.24 0.24,0 0,0.239 0.24,0 0,0.24 -0.48,0 0,0.24 -0.24,0 0,0.24 -0.24,0 0,0.24 -0.24,0 0,1.439 0.24,0 0,0.48 -0.24,0 0,-0.24 -1.2,0 0,0.24 -0.24,0 0,0.24 -0.24,0 0,0.24 -0.24,0 0,1.439 -9.598,0 0,-0.479 0.959,0 0,-0.24 0.24,0 0,-0.24 0.24,0 0,-0.24 0.24,0 0,-1.2 -0.24,0 0,-0.959 0.48,0 0,-0.48 0.48,0 0,-0.24 0.24,0 0,-0.24 0.24,0 0,-0.24 0.24,0 0,-1.199 0.24,0 0,-0.24 0.24,0 0,0.24 1.2,0 0,-0.24 0.24,0 0,-0.24 0.24,0 0,-0.24 0.24,0 0,-1.199 0.24,0 0,-0.24 0.24,0 0,-0.24 0.24,0 0,-1.2 -0.24,0 0,-0.719 0.48,0 0,-0.24 0.24,0 0,-0.24 0.24,0 0,-0.24 0.24,0 0,-0.72 0.24,0 0,-0.24 0.24,0 0,-1.679 -0.24,0 0,-0.24 0.48,0 0,-0.48 0.48,0 0,-0.24 0.24,0 0,-0.24 0.24,0 0,-0.239 0.239,0 0,-1.2 0.24,0 0,-0.24 0.24,0 0,-0.72 0.24,0 0,-0.479 0.24,0 0,-0.72 1.2,0 0,-0.24 0.24,0 0,-0.24 0.24,0 0,-0.24 0.24,0 0,-0.72 0.96,0 0,-0.239 0.24,0 0,-0.24 0.24,0 0,-0.24 0.24,0 0,-1.2 0.24,0 0,-1.199 -0.24,0 0,-1.2 0.72,0 0,-0.24 0.24,0 0,-0.24 0.24,0 0,-0.239 0.24,0 0,-0.96 0.24,0 0,-0.24 0.24,0 0,-1.439 0.24,0 0,-0.72 0.24,0 0,-0.48 0.72,0 0,-0.24 0.24,0 0,-0.24 0.24,0 0,-0.24 0.24,0 0,-1.199 -0.24,0 0,-42.703 -104.629,0 0,0.48 -0.48,0 0,1.2 0.24,0 0,0.479 -0.24,0 0,0.24 -0.24,0 0,-0.24 -0.24,0 0,-0.24 -1.2,0 0,0.24 -0.24,0 0,0.24 -0.24,0 0,0.24 -0.239,0 0,1.2 0.239,0 0,0.24 0.24,0 0,0.24 0.24,0 0,0.239 0.24,0 0,0.48 -0.24,0 0,0.24 -0.24,0 0,0.48 -1.199,0 0,0.24 -0.24,0 0,0.24 -0.24,0 0,0.24 -0.24,0 0,1.199 0.24,0 0,0.24 -0.72,0 0,0.24 -0.24,0 0,0.24 -0.24,0 0,0.24 -0.24,0 0,0.48 -0.48,0 0,0.239 -0.24,0 0,0.24 -0.24,0 0,1.2 0.24,0 0,0.72 0.24,0 0,0.239 -1.2,0 0,0.24 -0.24,0 0,0.24 -0.24,0 0,0.24 -0.24,0 0,0.48 -0.48,0 0,0.24 -0.24,0 0,1.199 0.24,0 0,0.24 0.24,0 0,0.24 0.24,0 0,0.48 -0.24,0 0,0.24 -1.44,0 0,0.24 -0.24,0 0,0.24 -0.24,0 0,0.24 -0.24,0 0,0.959 -0.72,0 0,0.24 -0.24,0 0,0.24 -0.24,0 0,0.24 -0.24,0 0,0.48 -0.48,0 0,1.199 0.24,0 0,0.24 -0.24,0 0,0.24 -0.239,0 0,1.2 0.239,0 0,0.479 -0.479,0 0,0.24 -0.24,0 0,0.24 -0.24,0 0,1.919 -0.48,0 0,0.24 -0.24,0 0,0.24 -0.24,0 0,0.96 -0.24,0 0,-0.24 -1.2,0 0,0.24 -0.24,0 0,0.24 -0.24,0 0,0.24 -0.24,0 0,0.24 -0.24,0 0,-0.24 -0.24,0 0,-0.24 -0.24,0 0,-0.24 -0.24,0 0,-0.24 -0.24,0 0,-0.24 -0.24,0 0,-0.24 -0.24,0 0,-0.72 -0.24,0 0,-0.24 -0.24,0 0,-0.239 -0.24,0 0,-0.24 -1.2,0 0,0.24 -0.48,0 0,-1.44 -0.24,0 0,-0.24 -0.24,0 0,-0.24 -0.24,0 0,-0.24 -1.199,0 0,-0.239 0.24,0 0,-0.24 0.24,0 0,-0.24 0.24,0 0,-1.2 -0.24,0 0,-0.24 -0.24,0 0,-0.24 -0.24,0 0,-0.239 -1.2,0 0,0.239 -0.48,0 0,-0.719 -0.24,0 0,-0.24 -0.24,0 0,-0.24 -0.24,0 0,-0.24 -0.48,0 0,-0.24 -0.72,0 0,-0.24 -1.68,0 0,-0.24 -0.24,0 0,-0.719 -0.24,0 0,-0.24 -0.24,0 0,-0.24 -0.24,0 0,-0.24 -1.44,0 0,-0.24 0.24,0 0,-1.2 -0.24,0 0,-0.239 -0.239,0 0,-0.24 -0.24,0 0,-0.24 -1.44,0 0,-0.72 -0.24,0 0,-0.24 -0.24,0 0,-0.24 -0.24,0 0,-0.24 -0.96,0 0,-0.24 -0.72,0 0,-0.239 -0.96,0 0,-0.96 -0.24,0 0,-0.24 -0.24,0 0,-0.24 -0.24,0 0,-0.24 -0.48,0 0,-0.24 -0.24,0 0,-0.24 -2.4,0 0,0.24 -0.24,0 0,-0.479 -0.24,0 0,-0.24 -0.239,0 0,-0.24 -0.24,0 0,-0.24 -1.2,0 0,0.24 -0.72,0 0,-0.24 -0.48,0 0,-0.24 -0.24,0 0,-0.72 -0.24,0 0,-0.24 -0.24,0 0,-0.24 -0.24,0 0,-0.239 -1.2,0 0,0.239 -0.24,0 0,0.24 -0.24,0 0,-0.24 -0.48,0 0,-0.239 -0.24,0 0,-0.24 -0.24,0 0,-0.24 -0.24,0 0,-0.24 -0.24,0 0,-0.24 -1.919,0 0,-0.24 -0.24,0 0,-0.24 -0.24,0 0,-0.959 -0.24,0 0,-0.24 -0.24,0 0,-0.24 -0.24,0 0,-0.24 -1.2,0 0,0.24 -0.24,0 0,0.24 -0.24,0 0,0.24 -0.24,0 0,0.239 -0.72,0 0,-0.239 -0.96,0 0,-0.24 -0.24,0 0,-0.24 -1.2,0 0,-0.24 -0.48,0 0,-0.72 -0.24,0 0,-0.24 -0.24,0 0,-0.24 -0.24,0 0,-0.24 -1.2,0 0,-0.24 -1.199,0 0,0.24 -0.48,0 0,-0.24 -0.24,0 0,-0.239 -1.2,0 0,0.239 -0.72,0 0,0.24 -0.48,0 0,-0.24 -0.96,0 0,-0.239 -0.72,0 0,-0.24 -1.44,0 0,-0.72 -0.24,0 0,-0.24 -0.24,0 0,-0.24 -0.24,0 0,-0.24 -1.199,0 0,0.24 -0.24,0 0,0.24 -1.2,0 0,-0.24 -0.24,0 0,-0.24 -1.68,0 0,0.24 -0.24,0 0,0.24 -0.48,0 0,-0.24 -0.24,0 0,-0.24 -1.68,0 0,0.24 -0.96,0 0,-0.24 -81.112,0 0,0.24 -0.24,0 0,0.24 -0.24,0 0,0.24 -0.24,0 0,0.96 -0.48,0 0,0.239 -0.24,0 0,1.2 0.24,0 0,0.24 -0.24,0 0,0.24 -0.24,0 0,0.48 -0.479,0 0,0.24 -0.96,0 0,0.239 -0.24,0 0,0.24 -0.24,0 0,0.24 -0.24,0 0,1.2 0.24,0 0,0.24 0.24,0 0,0.24 -0.24,0 0,1.199 0.24,0 0,0.24 -0.24,0 0,0.24 -0.48,0 0,0.959 -0.24,0 0,0.24 -0.24,0 0,0.24 -0.24,0 0,0.72 -0.24,0 0,0.48 -0.24,0 0,0.48 -0.24,0 0,0.239 -0.24,0 0,0.48 -0.24,0 0,0.48 -0.24,0 0,0.24 -0.24,0 0,0.24 -0.48,0 0,0.48 -0.24,0 0,-0.24 -1.2,0 0,0.24 -0.24,0 0,0.24 -0.24,0 0,0.239 -0.24,0 0,1.2 0.24,0 0,0.24 0.24,0 0,0.24 -0.24,0 0,0.72 -0.48,0 0,0.239 -0.24,0 0,0.24 -0.96,0 0,0.24 -0.24,0 0,0.24 -0.239,0 0,0.24 -0.24,0 0,1.2 0.24,0 0,0.239 0.239,0 0,0.24 -0.239,0 0,0.24 -0.24,0 0,0.24 -0.24,0 0,1.2 0.24,0 0,0.479 -0.24,0 0,0.48 -0.24,0 0,0.48 -0.24,0 0,0.24 -1.92,0 0,0.24 -0.24,0 0,0.24 -0.24,0 0,0.24 -0.24,0 0,0.479 -0.48,0 0,0.24 -0.24,0 0,1.2 0.24,0 0,0.24 -0.24,0 0,1.199 -0.24,0 0,0.24 -0.24,0 0,0.24 -0.24,0 0,0.24 -0.24,0 0,1.2 0.24,0 0,1.199 -0.24,0 0,0.24 -0.24,0 0,0.48 -0.24,0 0,0.48 -0.24,0 0,0.479 -0.24,0 0,0.24 -0.72,0 0,0.48 -0.24,0 0,0.24 -0.48,0 0,1.2 0.24,0 0,0.239 -0.24,0 0,0.72 -0.24,0 0,0.96 0.24,0 0,18.712 -0.24,0 0,-0.24 -0.24,0 0,-0.24 -0.24,0 0,-0.24 -0.24,0 0,-0.24 -0.24,0 0,-0.239 -0.24,0 0,-0.24 -0.239,0 0,-0.24 -0.24,0 0,-0.24 -0.24,0 0,-0.24 -0.24,0 0,-0.24 -0.24,0 0,-0.24 -0.24,0 0,-0.24 -0.24,0 0,-0.24 -0.24,0 0,-0.24 -0.24,0 0,-0.239 -0.48,0 0,-0.24 -0.24,0 0,-0.24 -0.96,0 0,-0.24 -0.24,0 0,-0.24 -0.24,0 0,-0.24 -0.24,0 0,-0.24 -0.24,0 0,-0.24 -0.24,0 0,-0.24 -0.24,0 0,-0.24 -0.24,0 0,-0.239 -0.24,0 0,-0.24 -0.24,0 0,-0.24 -0.72,0 0,-0.24 -0.24,0 0,-0.24 -0.48,0 0,-0.24 -0.24,0 0,-0.24 -0.24,0 0,-0.24 -0.24,0 0,-0.24 -0.48,0 0,-0.24 -0.24,0 0,-0.239 -0.239,0 0,-0.24 -0.72,0 0,-0.24 -0.24,0 0,-0.24 -0.48,0 0,-0.24 -0.24,0 0,-0.24 -0.24,0 0,-0.24 -0.48,0 0,-0.24 -0.48,0 0,-0.24 -0.24,0 0,-0.24 -0.24,0 0,-0.24 -0.24,0 0,-0.239 -0.48,0 0,-0.24 -0.24,0 0,-0.24 -0.48,0 0,-0.24 -0.24,0 0,-0.24 -0.48,0 0,-0.24 -0.24,0 0,-0.24 -0.72,0 0,-0.24 -0.24,0 0,-0.24 -0.72,0 0,-0.24 -0.48,0 0,-0.239 -0.24,0 0,-0.24 -0.48,0 0,-0.24 -0.24,0 0,-0.24 -0.959,0 0,-0.24 -1.2,0 0,-0.24 -0.24,0 0,-0.24 -3.6,0 0,0.24 -0.24,0 0,0.24 -1.44,0 0,0.24 -1.439,0 0,0.24 -0.24,0 0,0.24 -1.68,0 0,0.24 -0.24,0 0,0.239 -0.72,0 0,0.24 -0.24,0 0,0.24 -0.24,0 0,7.917 0.24,0 0,0.24 0.24,0 0,0.24 0.24,0 0,0.24 0.24,0 0,0.24 0.24,0 0,0.24 0.24,0 0,0.239 0.24,0 0,0.24 -0.24,0 0,1.2 0.24,0 0,0.24 0.24,0 0,0.24 0.24,0 0,0.24 1.2,0 0,-0.24 0.24,0 0,1.199 0.24,0 0,0.24 0.239,0 0,0.24 0.24,0 0,0.24 0.24,0 0,0.24 0.24,0 0,0.24 0.24,0 0,0.24 0.24,0 0,0.24 0.48,0 0,0.239 0.48,0 0,0.48 0.24,0 0,0.24 0.24,0 0,0.24 0.24,0 0,0.24 0.96,0 0,0.24 0.24,0 0,0.24 0.24,0 0,0.24 0.24,0 0,0.719 -0.24,0 0,1.2 0.24,0 0,0.72 0.24,0 0,0.239 0.24,0 0,0.24 0.24,0 0,0.24 0.72,0 0,0.24 1.2,0 0,-0.24 0.479,0 0,0.24 0.24,0 0,0.24 0.24,0 0,0.24 0.24,0 0,0.24 0.24,0 0,0.24 0.24,0 0,0.24 0.24,0 0,0.24 -0.48,0 0,0.24 -0.24,0 0,0.239 -0.24,0 0,1.2 0.24,0 0,0.24 0.24,0 0,0.24 0.24,0 0,0.24 1.2,0 0,-0.24 0.24,0 0,-0.24 0.24,0 0,1.199 0.24,0 0,0.24 0.24,0 0,0.24 0.24,0 0,0.24 0.96,0 0,0.24 0.24,0 0,0.24 0.24,0 0,0.24 0.24,0 0,0.24 0.24,0 0,0.24 0.24,0 0,0.239 0.48,0 0,0.24 0.24,0 0,0.24 0.72,0 0,0.96 0.24,0 0,0.24 0.24,0 0,0.24 0.24,0 0,0.24 0.48,0 0,0.239 0.24,0 0,0.24 -0.24,0 0,1.2 0.24,0 0,0.24 0.24,0 0,0.24 0.24,0 0,0.24 0.959,0 0,0.719 0.24,0 0,0.72 0.24,0 0,0.24 0.24,0 0,0.24 0.24,0 0,0.24 1.2,0 0,-0.24 0.24,0 0,0.24 0.24,0 0,0.24 0.24,0 0,0.24 0.24,0 0,0.719 0.24,0 0,0.24 0.24,0 0,0.24 0.24,0 0,0.24 0.72,0 0,0.96 0.24,0 0,0.239 0.24,0 0,0.24 0.24,0 0,0.24 0.48,0 0,0.72 0.24,0 0,0.24 0.24,0 0,0.24 0.24,0 0,0.24 0.96,0 0,0.24 0.24,0 0,1.199 0.24,0 0,0.24 0.24,0 0,0.24 0.24,0 0,0.24 1.199,0 0,0.959 0.24,0 0,0.24 0.24,0 0,0.24 0.24,0 0,0.24 1.2,0 0,-0.24 0.24,0 0,2.159 0.24,0 0,0.24 0.24,0 0,0.24 0.24,0 0,0.24 1.92,0 0,0.48 0.24,0 0,0.24 0.24,0 0,0.24 0.24,0 0,0.24 0.24,0 0,0.719 0.24,0 0,0.24 0.24,0 0,0.24 0.24,0 0,0.24 0.72,0 0,0.24 0.48,0 0,0.72 0.24,0 0,0.239 0.24,0 0,0.24 0.239,0 0,159.056 -0.479,0 0,1.199 0.24,0 0,0.24 0.239,0 0,0.24 0.24,0 0,0.24 22.558,0 0,0.72 0.24,0 0,0.239 0.24,0 0,0.24 -0.24,0 0,0.24 -0.24,0 0,0.48 -0.24,0 0,0.48 -0.24,0 0,0.48 -0.24,0 0,0.24 -0.24,0 0,0.239 -0.48,0 0,0.24 -0.24,0 0,1.2 -0.24,0 0,0.48 -0.24,0 0,0.24 -1.2,0 0,0.239 -0.24,0 0,0.24 -0.24,0 0,0.24 -0.24,0 0,1.2 0.24,0 0,0.24 -0.24,0 0,0.24 -0.959,0 0,0.24 -0.24,0 0,0.239 -0.24,0 0,0.24 -0.24,0 0,1.2 0.24,0 0,0.24 -0.24,0 0,1.679 -0.24,0 0,0.24 -0.24,0 0,0.24 -0.96,0 0,0.24 -0.24,0 0,0.24 -0.24,0 0,0.24 -0.24,0 0,0.719 -0.24,0 0,0.96 0.24,0 0,0.24 0.24,0 0,0.24 -0.24,0 0,0.479 -0.24,0 0,0.48 -0.24,0 0,0.24 -0.24,0 0,0.24 -0.48,0 0,0.24 -0.24,0 0,0.24 -0.24,0 0,1.439 -0.24,0 0,0.24 -0.24,0 0,0.48 -0.24,0 0,0.48 -0.24,0 0,0.24 -0.48,0 0,0.24 -0.24,0 0,0.24 -0.24,0 0,1.199 -0.24,0 0,0.48 -0.24,0 0,0.24 -0.24,0 0,0.48 -0.24,0 0,0.239 -0.24,0 0,0.48 -0.24,0 0,0.48 -0.24,0 0,0.48 -0.24,0 0,0.24 -0.959,0 0,0.24 -0.24,0 0,0.24 -0.24,0 0,0.24 -0.24,0 0,1.199 0.24,0 0,0.24 0.24,0 0,0.241 -0.24,0 0,0.239 -0.48,0 0,1.199 -0.24,0 0,0.48 -0.24,0 0,0.48 -0.48,0 0,0.24 -0.24,0 0,0.959 -0.24,0 0,1.2 -0.48,0 0,0.24 -0.24,0 0,1.2 0.24,0 0,0.239 -0.24,0 0,0.961 -0.24,0 0,0.479 -0.24,0 0,0.24 -0.96,0 0,0.239 -0.24,0 0,0.24 -0.24,0 0,0.24 -0.24,0 0,1.68 0.24,0 0,0.239 0.24,0 0,0.24 0.24,0 0,1.2 -0.24,0 0,0.959 -0.24,0 0,1.2 -0.24,0 0,1.2 -0.24,0 0,0.24 -0.48,0 0,0.24 -0.24,0 0,0.239 -0.24,0 0,0.24 -0.24,0 0,0.961 -0.24,0 0,0.958 0.24,0 0,0.241 -0.24,0 0,0.24 -0.24,0 0,1.199 0.24,0 0,0.24 0.24,0 0,1.44 0.24,0 0,0.24 0.24,0 0,0.48 -0.24,0 0,2.878 -0.24,0 0,9.836 0.24,0 0,0.24 0.24,0 0,0.24 0.24,0 0,0.24 34.316,0 0,0.24 -1.2,0 0,0.24 -0.239,0 0,0.24 -0.24,0 0,0.24 -0.24,0 0,0.48 -0.24,0 0,0.239 -0.24,0 0,1.92 0.24,0 0,0.24 -0.24,0 0,0.24 -0.24,0 0,0.239 -0.24,0 0,0.48 -0.24,0 0,0.24 -0.24,0 0,0.24 -0.24,0 0,0.24 -0.24,0 0,0.48 -0.24,0 0,0.24 -1.2,0 0,0.24 -0.24,0 0,0.239 -0.24,0 0,0.24 -0.24,0 0,1.2 0.24,0 0,0.72 -0.24,0 0,0.479 -1.2,0 0,0.24 -0.24,0 0,0.24 -0.24,0 0,0.24 -0.24,0 0,1.2 -0.24,0 0,0.239 -0.24,0 0,0.24 -0.24,0 0,0.24 -0.24,0 0,0.72 -0.72,0 0,0.24 -0.24,0 0,0.24 -0.24,0 0,0.24 -0.24,0 0,1.199 0.24,0 0,0.24 0.24,0 0,0.24 -0.959,0 0,0.24 -0.24,0 0,0.24 -0.24,0 0,0.24 -0.24,0 0,0.24 -0.48,0 0,1.199 0.24,0 0,0.24 -0.24,0 0,0.24 -0.24,0 0,1.199 0.24,0 0,0.48 -0.24,0 0,0.48 -0.24,0 0,0.24 -0.24,0 0,0.48 -0.24,0 0,0.48 -0.24,0 0,0.479 -0.48,0 0,-0.24 -1.2,0 0,0.24 -0.24,0 0,0.24 -0.24,0 0,0.24 -0.24,0 0,0.48 -0.24,0 0,0.96 0.24,0 0,0.959 0.24,0 0,0.72 -0.24,0 0,0.24 -0.24,0 0,0.24 -0.48,0 0,0.24 -0.24,0 0,0.24 -0.24,0 0,0.239 -0.24,0 0,0.24 -0.48,0 0,0.48 -0.24,0 0,0.48 -0.479,0 0,1.199 0.239,0 0,0.24 -0.479,0 0,0.24 -0.24,0 0,0.24 -0.24,0 0,0.24 -0.48,0 0,0.24 -0.24,0 0,0.24 -0.24,0 0,1.199 0.24,0 0,0.24 0.24,0 0,0.24 -0.24,0 0,0.48 -0.24,0 0,0.48 -0.24,0 0,0.48 -1.2,0 0,0.239 -0.24,0 0,0.24 -0.24,0 0,0.24 -0.24,0 0,0.96 -0.48,0 0,0.24 -0.24,0 0,0.24 -0.24,0 0,0.24 -0.24,0 0,1.199 0.24,0 0,0.24 0.24,0 0,0.48 -0.24,0 0,0.48 -0.24,0 0,0.24 -0.96,0 0,0.239 -0.24,0 0,0.24 -0.24,0 0,0.24 -0.24,0 0,2.399 -0.24,0 0,0.48 -0.24,0 0,0.24 -0.24,0 0,-0.24 -1.2,0 0,0.24 -0.24,0 0,0.24 -0.24,0 0,0.24 -0.24,0 0,1.199 0.24,0 0,0.24 -0.48,0 0,1.2 0.24,0 0,0.24 0.24,0 0,0.239 -0.48,0 0,0.24 -1.199,0 0,0.24 -0.24,0 0,0.24 -0.24,0 0,0.24 -0.24,0 0,1.2 0.24,0 0,0.24 0.24,0 0,0.239 0.24,0 0,0.48 -0.24,0 0,1.2 -0.96,0 0,0.24 -0.24,0 0,0.24 -0.24,0 0,0.24 -0.24,0 0,1.199 0.24,0 0,0.24 0.24,0 0,0.24 0.24,0 0,0.24 0.24,0 0,0.24 -0.24,0 0,0.479 -0.24,0 0,0.24 -0.24,0 0,0.72 -0.48,0 0,0.24 -0.24,0 0,0.24 -0.24,0 0,1.199 0.24,0 0,0.24 0.24,0 0,0.72 -0.48,0 0,1.439 -0.48,0 0,0.24 -0.24,0 0,0.24 -0.24,0 0,0.96 -0.24,0 0,1.199 0.24,0 0,0.72 -0.24,0 0,0.48 -0.24,0 0,0.24 -0.48,0 0,1.199 0.24,0 0,0.24 0.24,0 0,1.2 0.24,0 0,0.24 0.24,0 0,0.239 -0.24,0 0,1.2 0.24,0 0,0.24 0.24,0 0,0.959 -0.48,0 0,0.24 -0.24,0 0,0.24 -0.24,0 0,1.2 0.24,0 0,0.24 0.24,0 0,0.24 0.24,0 0,0.239 0.24,0 0,2.639 -0.24,0 0,0.96 0.24,0 0,0.24 0.24,0 0,0.96 -0.48,0 0,1.199 0.24,0 0,0.24 0.24,0 0,0.24 0.24,0 0,0.959 0.24,0 0,1.68 0.24,0 0,1.199 0.24,0 0,0.72 0.24,0 0,0.96 -0.48,0 0,0.239 -0.24,0 0,1.44 0.24,0 0,0.24 0.24,0 0,0.24 0.24,0 0,1.199 -0.24,0 0,1.2 0.24,0 0,0.24 0.24,0 0,0.24 0.24,0 0,0.239 0.72,0 0,0.72 0.24,0 0,0.48 0.24,0 0,0.24 0.24,0 0,0.24 0.24,0 0,0.24 0.24,0 0,0.719 0.24,0 0,0.48 0.24,0 0,0.48 0.239,0 0,0.48 0.24,0 0,0.719 0.24,0 0,0.48 0.24,0 0,0.96 -0.48,0 0,1.439 0.24,0 0,0.24 0.24,0 0,0.24 0.24,0 0,0.24 1.44,0 0,0.48 0.24,0 0,0.48 0.24,0 0,0.24 0.24,0 0,0.479 0.24,0 0,0.24 -0.48,0 0,1.2 0.24,0 0,0.24 0.24,0 0,0.24 0.24,0 0,0.239 0.72,0 0,0.96 0.24,0 0,1.2 0.24,0 0,0.239 0.24,0 0,0.24 0.24,0 0,0.24 0.24,0 0,0.24 0.72,0 0,0.24 -0.24,0 0,1.2 0.24,0 0,0.239 0.24,0 0,0.24 0.24,0 0,0.24 1.2,0 0,-0.24 0.24,0 0,-0.24 0.24,0 0,0.24 0.24,0 0,0.24 0.24,0 0,0.48 0.24,0 0,0.24 0.24,0 0,0.24 0.24,0 0,0.24 0.239,0 0,0.24 -0.239,0 0,1.199 0.239,0 0,0.96 0.24,0 0,0.24 0.24,0 0,0.24 0.24,0 0,0.24 0.96,0 0,1.199 0.24,0 0,0.24 0.24,0 0,0.24 0.24,0 0,0.24 1.2,0 0,0.24 0.24,0 0,0.24 0.24,0 0,0.239 0.24,0 0,0.24 1.2,0 0,0.24 0.72,0 0,0.24 -0.24,0 0,0.24 -0.24,0 0,0.24 -0.24,0 0,1.2 0.24,0 0,0.239 0.24,0 0,0.24 0.24,0 0,0.24 1.679,0 0,-0.24 0.24,0 0,-0.24 0.24,0 0,0.24 0.96,0 0,1.44 0.24,0 0,0.24 0.24,0 0,0.24 0.24,0 0,0.239 1.2,0 0,-0.479 0.72,0 0,-0.24 0.24,0 0,0.24 0.48,0 0,0.24 0.24,0 0,0.239 -0.24,0 0,1.2 0.24,0 0,0.24 0.24,0 0,0.24 0.24,0 0,0.24 1.2,0 0,-0.24 0.24,0 0,-0.24 0.24,0 0,-0.24 0.24,0 0,0.48 0.24,0 0,0.24 0.24,0 0,0.24 0.24,0 0,0.239 0.24,0 0,0.24 0.24,0 0,0.24 0.239,0 0,0.24 1.2,0 0,-0.48 0.48,0 0,0.24 0.48,0 0,0.24 0.48,0 0,0.24 0.24,0 0,0.96 0.24,0 0,0.24 0.24,0 0,0.239 0.24,0 0,0.24 0.96,0 0,0.24 0.24,0 0,0.24 1.2,0 0,-0.24 0.96,0 0,0.24 0.24,0 0,0.24 0.96,0 0,0.48 0.24,0 0,0.24 0.24,0 0,0.24 0.24,0 0,0.24 0.479,0 0,0.24 0.24,0 0,0.239 0.24,0 0,0.24 1.2,0 0,-0.24 0.24,0 0,-0.479 0.48,0 0,0.24 0.24,0 0,0.239 1.2,0 0,-0.239 0.48,0 0,0.239 0.24,0 0,0.24 0.96,0 0,-0.24 0.24,0 0,0.24 0.48,0 0,1.2 0.24,0 0,0.24 0.24,0 0,0.24 0.24,0 0,0.24 1.2,0 0,-0.24 0.24,0 0,-0.24 0.24,0 0,-0.24 0.239,0 0,0.24 1.2,0 0,-0.24 0.24,0 0,0.24 0.24,0 0,0.24 0.24,0 0,0.24 1.2,0 0,-0.48 0.96,0 0,-0.24 0.72,0 0,0.24 2.641,0 0,0.24 4.079,0 0,0.24 3.839,0 0,-0.24 4.08,0 0,-0.24 0.959,0 0,0.24 0.241,0 0,0.24 1.2,0 0,-0.48 0.24,0 0,-0.24 1.68,0 0,-0.24 1.68,0 0,-0.24 0.24,0 0,0.24 0.24,0 0,0.24 1.199,0 0,-0.24 0.24,0 0,-0.48 1.92,0 0,-0.48 0.96,0 0,-0.24 0.96,0 0,-0.239 0.96,0 0,-0.24 0.72,0 0,-0.24 0.48,0 0,0.24 0.24,0 0,0.24 1.2,0 0,-0.48 0.24,0 0,0.24 0.24,0 0,0.24 0.959,0 0,-0.24 0.96,0 0,-0.24 0.24,0 0,-0.24 0.24,0 0,-0.24 0.24,0 0,-0.96 0.24,0 0,-0.24 0.48,0 0,-0.24 1.44,0 0,0.24 1.2,0 0,-0.24 0.24,0 0,-0.239 0.24,0 0,-0.24 0.24,0 0,-0.48 1.2,0 0,-0.24 0.24,0 0,-0.24 0.48,0 0,0.24 1.2,0 0,-0.48 1.199,0 0,-0.24 0.24,0 0,-0.24 0.24,0 0,-0.24 0.24,0 0,-0.959 0.24,0 0,-0.24 0.24,0 0,-0.24 0.24,0 0,-0.48 0.24,0 0,-0.24 0.48,0 0,-0.24 1.2,0 0,-0.479 0.24,0 0,0.24 0.72,0 0,0.239 1.2,0 0,-0.239 0.24,0 0,-0.24 0.24,0 0,-0.24 0.24,0 0,-1.2 1.68,0 0,-0.24 0.239,0 0,-0.24 0.24,0 0,-0.239 0.24,0 0,-1.2 -0.24,0 0,-0.72 0.24,0 0,-0.24 0.24,0 0,-0.24 0.24,0 0,-0.239 0.24,0 0,-0.24 0.72,0 0,-0.48 0.24,0 0,-0.24 0.24,0 0,-0.24 0.24,0 0,-0.24 0.24,0 0,-0.24 0.24,0 0,-0.24 0.24,0 0,-0.24 0.24,0 0,-0.239 0.24,0 0,-0.24 0.24,0 0,-0.24 0.24,0 0,-0.24 0.24,0 0,-0.24 0.48,0 0,-0.24 0.96,0 0,-0.24 0.24,0 0,-0.48 0.72,0 0,-0.24 0.24,0 0,-0.479 0.48,0 0,-0.24 0.24,0 0,-0.24 0.24,0 0,-0.24 0.24,0 0,-1.2 -0.24,0 0,-0.24 0.24,0 0,-0.239 0.24,0 0,-0.48 0.48,0 0,-0.24 0.24,0 0,-0.24 0.239,0 0,-0.24 0.24,0 0,-1.199 0.48,0 0,-0.48 0.24,0 0,-0.48 0.72,0 0,-0.24 0.24,0 0,-0.24 0.24,0 0,-0.24 0.24,0 0,-0.48 0.72,0 0,-0.239 0.24,0 0,-0.24 0.24,0 0,-0.24 0.24,0 0,-1.44 0.24,0 0,-0.24 0.24,0 0,-1.439 0.24,0 0,-0.24 0.24,0 0,0.24 1.2,0 0,-0.24 0.24,0 0,-0.24 0.24,0 0,-0.24 0.24,0 0,-2.639 -0.24,0 0,-0.24 -0.24,0 0,-0.239 0.72,0 0,-0.24 0.24,0 0,-0.24 0.24,0 0,-0.24 0.24,0 0,-1.2 -0.24,0 0,-0.24 -0.24,0 0,-0.239 -0.24,0 0,-0.48 0.24,0 0,-0.24 0.24,0 0,-0.48 0.479,0 0,-0.24 1.2,0 0,-0.24 0.24,0 0,-0.24 0.24,0 0,-0.24 0.24,0 0,-1.199 0.24,0 0,-0.24 0.24,0 0,-1.2 -0.24,0 0,-0.239 -0.24,0 0,-0.24 0.96,0 0,-0.48 0.96,0 0,-0.24 0.24,0 0,-0.24 0.24,0 0,-0.24 0.24,0 0,-1.679 0.24,0 0,-0.24 0.24,0 0,-0.24 0.24,0 0,-0.24 0.24,0 0,-0.72 0.24,0 0,-0.239 0.24,0 0,-0.24 0.24,0 0,-0.24 0.24,0 0,-0.48 0.24,0 0,0.24 0.48,0 0,0.48 0.24,0 0,0.719 -0.24,0 0,0.24 -0.48,0 0,1.2 0.24,0 0,0.24 0.24,0 0,0.24 0.24,0 0,0.239 1.2,0 0,1.2 0.24,0 0,0.24 0.24,0 0,0.24 0.24,0 0,0.24 0.959,0 0,0.24 -0.48,0 0,1.199 0.24,0 0,1.679 0.24,0 0,0.24 0.24,0 0,0.24 0.24,0 0,0.24 0.96,0 0,-0.24 0.48,0 0,1.2 0.24,0 0,0.24 0.24,0 0,0.24 0.24,0 0,0.239 0.72,0 0,0.48 0.24,0 0,0.24 0.24,0 0,0.24 0.24,0 0,0.24 -0.24,0 0,1.199 0.24,0 0,0.24 0.24,0 0,0.24 0.24,0 0,0.24 0.24,0 0,0.24 0.24,0 0,0.24 0.96,0 0,0.48 -0.48,0 0,1.199 0.24,0 0,0.24 0.24,0 0,0.24 0.24,0 0,0.24 1.2,0 0,-0.48 0.24,0 0,0.24 0.24,0 0,0.24 0.239,0 0,1.2 0.24,0 0,0.239 0.24,0 0,0.24 0.24,0 0,0.24 0.96,0 0,0.24 0.24,0 0,0.24 0.24,0 0,0.24 0.24,0 0,0.24 0.24,0 0,0.24 0.24,0 0,0.24 0.24,0 0,0.24 0.24,0 0,0.239 0.24,0 0,0.24 0.72,0 0,0.96 0.24,0 0,0.24 0.24,0 0,0.24 0.24,0 0,0.24 0.24,0 0,1.199 0.24,0 0,0.24 0.24,0 0,0.24 0.24,0 0,0.24 0.96,0 0,0.72 0.24,0 0,0.239 0.24,0 0,0.24 0.24,0 0,0.24 0.96,0 0,1.44 0.239,0 0,0.24 0.24,0 0,0.24 0.24,0 0,0.239 1.2,0 0,-0.239 0.24,0 0,0.239 2.16,0 0,0.24 0.24,0 0,0.24 0.24,0 0,0.24 0.24,0 0,0.72 0.24,0 0,0.24 0.24,0 0,0.24 0.24,0 0,0.24 1.44,0 0,0.719 0.24,0 0,0.24 0.24,0 0,0.72 0.24,0 0,0.48 0.24,0 0,0.24 0.24,0 0,0.239 0.24,0 0,0.24 0.24,0 0,0.24 0.24,0 0,0.24 1.919,0 0,-0.48 0.24,0 0,0.24 0.24,0 0,0.24 0.24,0 0,0.24 0.24,0 0,0.24 0.72,0 0,1.2 0.24,0 0,0.239 0.24,0 0,0.24 0.24,0 0,0.24 1.2,0 0,-0.48 0.72,0 0,0.48 0.24,0 0,0.24 0.24,0 0,0.24 0.24,0 0,0.48 0.24,0 0,0.24 0.24,0 0,0.24 0.24,0 0,0.24 1.199,0 0,-0.24 0.24,0 0,-0.24 0.48,0 0,0.24 0.48,0 0,0.24 0.24,0 0,1.199 0.24,0 0,0.24 0.24,0 0,0.24 0.24,0 0,0.24 1.2,0 0,-0.24 0.24,0 0,-0.48 0.48,0 0,0.24 0.48,0 0,0.24 0.48,0 0,0.48 0.24,0 0,0.24 0.24,0 0,0.239 0.24,0 0,0.24 0.72,0 0,0.24 0.24,0 0,0.24 0.24,0 0,0.24 0.24,0 0,0.24 0.24,0 0,0.24 1.2,0 0,-0.24 0.24,0 0,0.24 0.239,0 0,0.24 0.24,0 0,0.24 0.24,0 0,0.24 0.48,0 0,0.479 0.24,0 0,0.24 0.24,0 0,0.24 0.24,0 0,0.24 1.2,0 0,-0.24 0.24,0 0,-0.24 0.24,0 0,-0.24 0.24,0 0,0.24 1.2,0 0,-0.24 0.24,0 0,0.24 0.72,0 0,0.24 1.44,0 0,0.24 0.96,0 0,0.24 0.72,0 0,0.24 0.719,0 0,0.24 0.24,0 0,0.24 1.68,0 0,0.24 0.48,0 0,0.24 0.24,0 0,0.239 0.24,0 0,0.24 1.2,0 0,-0.24 0.24,0 0,0.24 2.16,0 0,0.24 0.48,0 0,0.24 0.24,0 0,0.24 0.24,0 0,0.24 0.24,0 0,0.24 0.24,0 0,0.24 0.24,0 0,0.24 0.24,0 0,0.24 1.199,0 0,-0.24 0.24,0 0,-0.24 0.24,0 0,-0.48 0.24,0 0,0.24 0.96,0 0,-0.24 1.2,0 0,0.24 1.92,0 0,0.24 2.4,0 0,0.24 5.759,0 0,0.24 4.08,0 0,-0.24 5.039,0 0,-0.24 3.12,0 0,-0.24 0.24,0 0,0.24 1.199,0 0,0.24 0.24,0 0,0.24 1.2,0 0,-0.24 0.24,0 0,-0.24 0.24,0 0,-0.48 0.48,0 0,-0.24 1.68,0 0,-0.24 1.2,0 0,-0.24 1.2,0 0,-0.24 1.44,0 0,-0.24 0.959,0 0,-0.239 0.48,0 0,0.239 1.2,0 0,-0.239 0.24,0 0,0.239 0.72,0 0,0.24 0.96,0 0,-0.24 0.72,0 0,0.24 1.44,0 0,-0.24 0.24,0 0,-0.239 0.24,0 0,-0.24 0.24,0 0,-1.2 0.24,0 0,-0.24 0.72,0 0,-0.24 0.72,0 0,-0.24 1.679,0 0,0.24 0.24,0 0,0.24 0.24,0 0,0.24 1.2,0 0,-0.24 0.24,0 0,-0.24 0.24,0 0,-0.24 0.24,0 0,-1.199 0.24,0 0,-0.24 0.48,0 0,-0.24 0.48,0 0,0.24 0.96,0 0,-0.24 0.72,0 0,0.24 0.96,0 0,-0.24 0.48,0 0,-0.24 0.96,0 0,-0.24 0.24,0 0,-0.24 0.24,0 0,-0.24 0.24,0 0,-1.199 0.479,0 0,0.24 0.24,0 0,0.24 1.2,0 0,-0.24 1.2,0 0,-0.24 0.24,0 0,-0.24 0.24,0 0,-0.24 0.24,0 0,-1.199 0.96,0 0,-0.24 0.48,0 0,-0.24 1.44,0 0,-0.24 0.24,0 0,-0.24 0.24,0 0,-0.24 0.24,0 0,-0.72 0.48,0 0,0.24 0.24,0 0,0.24 1.199,0 0,-0.48 0.72,0 0,-0.479 0.24,0 0,-0.24 0.24,0 0,-0.24 0.24,0 0,-0.24 0.24,0 0,-0.96 0.72,0 0,-0.24 0.48,0 0,-0.24 0.24,0 0,-0.239 0.24,0 0,-0.48 0.24,0 0,-0.24 0.96,0 0,-0.24 0.24,0 0,-0.48 0.24,0 0,-0.24 0.24,0 0,-0.24 0.72,0 0,-0.479 0.24,0 0,-0.24 0.24,0 0,-0.24 0.48,0 0,-0.24 0.24,0 0,-0.24 0.24,0 0,0.24 0.24,0 0,0.24 1.199,0 0,-0.24 0.24,0 0,-0.24 0.24,0 0,-0.24 0.24,0 0,-0.72 0.24,0 0,-0.24 0.72,0 0,-0.239 0.24,0 0,-0.48 0.24,0 0,-0.24 0.24,0 0,-0.24 0.24,0 0,-0.48 0.72,0 0,-0.24 0.24,0 0,-0.48 0.72,0 0,-0.24 0.96,0 0,-0.239 0.24,0 0,-0.24 0.24,0 0,-0.24 0.24,0 0,-0.72 0.24,0 0,0.24 1.2,0 0,-0.48 0.48,0 0,-0.24 0.239,0 0,-0.24 0.24,0 0,-0.24 0.24,0 0,-0.719 0.48,0 0,-0.48 0.96,0 0,-0.24 0.24,0 0,-0.24 0.24,0 0,-0.24 0.24,0 0,-0.719 0.48,0 0,-0.48 0.48,0 0,-0.24 0.24,0 0,-0.24 0.24,0 0,-0.24 0.24,0 0,-1.439 0.24,0 0,-0.24 0.48,0 0,-0.48 0.24,0 0,-0.24 0.24,0 0,-0.24 0.24,0 0,-0.24 0.24,0 0,-1.679 0.24,0 0,-0.24 0.24,0 0,-0.48 0.24,0 0,-0.24 0.24,0 0,-0.24 0.24,0 0,-0.24 0.24,0 0,-0.479 1.2,0 0,-0.24 0.24,0 0,-0.48 0.719,0 0,-0.24 0.24,0 0,-0.24 0.24,0 0,-0.24 0.24,0 0,-1.199 0.24,0 0,-0.24 0.24,0 0,-1.44 0.24,0 0,-0.239 0.48,0 0,-0.24 0.24,0 0,-0.24 0.24,0 0,-0.24 0.24,0 0,-0.48 0.24,0 0,-0.24 0.24,0 0,-0.24 0.24,0 0,-0.24 0.24,0 0,-0.959 0.48,0 0,-0.48 1.2,0 0,-0.24 0.24,0 0,-0.24 0.24,0 0,-0.24 0.24,0 0,-1.199 -0.24,0 0,-0.48 0.24,0 0,-0.24 0.24,0 0,-0.96 0.24,0 0,0.24 1.2,0 0,-0.24 0.24,0 0,-0.24 0.24,0 0,-0.239 0.24,0 0,-1.2 -0.24,0 0,-0.24 -0.24,0 0,-0.24 -0.24,0 0,-0.24 -0.24,0 0,-0.24 0.24,0 0,-0.479 0.24,0 0,-0.72 0.24,0 0,-0.24 0.24,0 0,-0.24 0.24,0 0,-0.959 0.719,0 0,46.541 -0.719,0 0,0.239 -0.24,0 0,0.24 -0.24,0 0,0.24 -0.24,0 0,1.2 0.24,0 0,0.24 0.24,0 0,0.24 0.24,0 0,0.24 1.199,0 0,0.239 0.24,0 0,0.24 46.075,0 0,-0.24 0.72,0 0,-0.239 0.24,0 0,-0.24 0.24,0 0,-0.24 0.24,0 0,-1.44 0.72,0 0,0.24 0.24,0 0,0.24 0.24,0 0,0.24 0.48,0 0,0.24 0.24,0 0,0.24 0.24,0 0,1.199 0.24,0 0,0.24 0.24,0 0,0.24 0.24,0 0,0.24 0.48,0 0,0.24 0.24,0 0,0.24 0.24,0 0,0.24 0.24,0 0,0.48 0.24,0 0,0.239 0.24,0 0,0.24 0.24,0 0,0.24 1.199,0 0,0.24 0.24,0 0,0.24 0.24,0 0,0.48 -0.24,0 0,1.199 0.24,0 0,0.24 0.24,0 0,0.24 0.24,0 0,0.24 1.44,0 0,-0.24 0.24,0 0,0.24 0.24,0 0,0.24 -0.24,0 0,1.199 0.24,0 0,0.24 0.24,0 0,0.24 0.24,0 0,0.24 0.96,0 0,0.96 0.24,0 0,0.24 0.24,0 0,0.24 0.24,0 0,0.24 0.72,0 0,0.479 0.24,0 0,0.24 0.24,0 0,0.24 0.24,0 0,0.24 1.44,0 0,0.24 0.24,0 0,0.24 0.24,0 0,0.24 0.239,0 0,0.24 0.24,0 0,0.24 0.24,0 0,0.239 0.24,0 0,0.24 0.24,0 0,0.24 0.24,0 0,0.24 -0.24,0 0,1.2 0.24,0 0,0.24 0.24,0 0,0.239 0.24,0 0,0.24 0.48,0 0,0.24 0.24,0 0,0.24 0.24,0 0,0.24 0.96,0 0,0.48 0.24,0 0,0.24 0.24,0 0,0.24 0.24,0 0,0.24 0.96,0 0,1.199 0.24,0 0,0.24 0.24,0 0,0.24 0.24,0 0,0.24 1.2,0 0,0.24 0.24,0 0,0.24 0.24,0 0,0.239 0.24,0 0,0.24 0.24,0 0,0.24 0.24,0 0,0.24 0.24,0 0,0.72 0.24,0 0,0.24 0.24,0 0,0.24 0.24,0 0,0.24 0.239,0 0,0.24 0.72,0 0,0.239 0.24,0 0,0.24 0.24,0 0,0.24 0.24,0 0,1.2 0.24,0 0,0.24 0.24,0 0,0.24 0.24,0 0,0.239 1.2,0 0,0.48 0.24,0 0,0.24 0.24,0 0,0.24 0.24,0 0,0.96 0.24,0 0,0.24 0.24,0 0,0.239 0.24,0 0,0.24 1.2,0 0,1.2 0.24,0 0,0.24 0.24,0 0,0.24 0.24,0 0,1.439 0.24,0 0,0.24 0.24,0 0,0.24 0.24,0 0,0.24 1.199,0 0,-0.24 0.24,0 0,-0.48 0.24,0 0,0.24 0.24,0 0,0.24 0.24,0 0,0.24 0.24,0 0,0.24 0.24,0 0,0.24 0.24,0 0,0.24 0.24,0 0,0.239 0.24,0 0,0.24 0.24,0 0,0.24 0.24,0 0,0.24 0.24,0 0,0.24 0.24,0 0,0.24 0.24,0 0,0.24 0.24,0 0,0.24 0.24,0 0,0.24 0.24,0 0,0.24 0.24,0 0,0.239 0.24,0 0,0.24 0.24,0 0,0.24 0.24,0 0,0.24 0.24,0 0,0.24 0.24,0 0,0.24 z m -181.42,-181.727 0.24,2.52 1.56,-0.721 2.519,4.558 1.68,-0.36 7.919,9.718 1.2,0 2.88,4.078 3.359,1.799 3.6,3.359 0,2.519 2.64,0 6.959,9.596 3.84,1.199 1.2,2.519 4.559,5.878 3.36,1.079 2.639,4.439 1.2,0 5.52,6.477 -1.2,3.359 -10.559,5.877 -3.12,-0.48 -4.079,2.4 -11.039,0 -13.199,-2.16 -6.239,-3.478 -1.2,-2.639 -5.279,-1.679 -7.559,-7.917 0.24,-1.919 -5.76,-7.917 0.24,-2.159 -2.879,-5.038 0.719,-2.639 -1.919,-2.639 -0.48,-20.872 2.759,-1.199 0.24,-2.04 2.16,0.24 9.839,-5.758 1.44,0 z m 3.839,-31.187 13.439,2.399 7.439,3.718 -0.36,1.919 2.64,-0.479 3.48,2.518 0.24,2.28 1.199,0 4.92,5.277 -0.24,1.92 3,1.919 0.12,3.119 4.439,6.477 -0.6,2.88 2.52,1.679 -0.6,4.798 2.52,4.798 -45.475,-44.143 1.319,-1.079 z m -71.512,-36.586 2.4,4.799 2.04,-0.24 -0.24,1.679 5.879,5.998 1.2,0 5.04,4.078 2.399,3.598 0,4.319 1.08,4.798 -4.199,3.118 0,3.599 -2.4,0.36 -2.52,-7.077 0.48,-2.159 -1.68,-1.44 0.24,-1.919 -4.559,-10.076 -3.84,-3.838 0.48,-1.92 -5.399,-5.038 3.599,-2.639 z m 10.319,-59.255 -0.12,37.424 -13.798,-13.554 1.92,-1.799 -0.72,-2.399 4.559,-3.119 -0.48,-2.639 8.639,-13.914 z m 149.264,-64.894 -2.4,4.438 -3.6,2.159 0.72,2.399 -2.879,1.92 0.6,1.919 -1.8,0.36 -0.12,2.998 -6.12,9.716 -1.199,0 -1.56,5.398 -3.24,3.719 -1.2,0 -2.519,5.398 0.24,2.159 -17.159,0 5.16,-10.316 4.319,-4.558 0,-2.399 5.4,-7.437 0.36,-4.079 -0.12,-13.914 27.117,0.12 z M 262.87,500.69 l 17.518,4.799 7.68,5.637 2.999,5.038 -0.48,1.919 2.76,0.48 3.24,9.836 -0.24,1.919 1.8,0.96 1.439,7.677 -1.319,3.838 1.799,0.72 0.12,3.838 0,5.278 -1.68,5.038 0.6,1.919 -2.879,3.599 -3.36,-0.6 -5.999,2.639 -2.16,-0.72 -0.84,1.56 -24.597,-24.23 0.12,-40.544"
         id="path46"
         inkscape:connector-curvature="0"
         style="clip-rule:evenodd" /></clipPath><clipPath
       clipPathUnits="userSpaceOnUse"
       id="clipPath50"><path
         d="m -1.22e-4,-0.003906 907.082002,0 0,1133.847006 -907.082002,0 0,-1133.847006 z"
         id="path52"
         inkscape:connector-curvature="0"
         style="clip-rule:evenodd" /></clipPath><clipPath
       clipPathUnits="userSpaceOnUse"
       id="clipPath56"><path
         d="m -1.22e-4,-0.003906 907.082002,0 0,1133.847006 -907.082002,0 0,-1133.847006 z"
         id="path58"
         inkscape:connector-curvature="0"
         style="clip-rule:evenodd" /></clipPath><clipPath
       clipPathUnits="userSpaceOnUse"
       id="clipPath62"><path
         d="m 0.029999,1133.843 907.020001,0 0,-1133.813 -907.020001,0 0,1133.813 z"
         id="path64"
         inkscape:connector-curvature="0" /></clipPath><clipPath
       clipPathUnits="userSpaceOnUse"
       id="clipPath74"><path
         d="m -1.22e-4,-0.003906 907.082002,0 0,1133.847006 -907.082002,0 0,-1133.847006 z"
         id="path76"
         inkscape:connector-curvature="0"
         style="clip-rule:evenodd" /></clipPath><clipPath
       clipPathUnits="userSpaceOnUse"
       id="clipPath80"><path
         d="m -1.22e-4,-0.003906 907.082002,0 0,1133.847006 -907.082002,0 0,-1133.847006 z"
         id="path82"
         inkscape:connector-curvature="0"
         style="clip-rule:evenodd" /></clipPath><clipPath
       clipPathUnits="userSpaceOnUse"
       id="clipPath86"><path
         d="m 0.029999,1133.843 907.020001,0 0,-1133.813 -907.020001,0 0,1133.813 z"
         id="path88"
         inkscape:connector-curvature="0" /></clipPath><clipPath
       clipPathUnits="userSpaceOnUse"
       id="clipPath168"><path
         d="m 15.214,269.892 137.76,0 0,164.399 -137.76,0 0,-164.399 z"
         id="path170"
         inkscape:connector-curvature="0" /></clipPath><clipPath
       clipPathUnits="userSpaceOnUse"
       id="clipPath174"><path
         d="m 25.54,430.353 c 0.67,0.57 3.82,3.151 18.597,3.687 13.27,0 21.948,-0.235 27.411,-3.586 0.737,-0.503 0.871,-0.771 1.072,-0.838 0.201,-0.068 0.167,-0.402 0,-0.671 -0.168,-0.268 -0.469,-1.039 -0.503,-1.206 -0.033,-0.168 -0.201,-7.677 -0.201,-7.677 0,0 -0.603,-38.077 -0.67,-42.702 -0.067,-4.626 0.134,-11.262 -1.038,-15.15 -1.174,-3.888 -2.347,-6.537 -2.38,-6.805 -0.033,-0.268 -0.134,-7.944 -0.134,-7.944 0,0 17.693,0.168 18.497,0.168 0.804,0 7.338,1.139 9.884,1.172 2.547,0.035 3.887,0 3.887,0 0,0 0.134,6.201 0.134,21.185 0,14.982 -0.167,17.429 -0.167,17.429 0,0 -0.502,-0.134 -1.005,0.101 -0.502,0.234 -0.838,0.938 -0.201,1.508 0.636,0.57 6.936,1.307 9.717,1.307 2.781,0 8.981,0.268 13.94,-0.536 4.322,-0.738 4.49,-1.206 4.992,-1.475 0.503,-0.268 0.47,-0.804 0.102,-0.938 -0.37,-0.134 -1.006,-0.269 -1.006,-0.269 0,0 0.134,-5.195 0.134,-7.741 0,-2.548 0.402,-29.196 0.435,-30.135 0.033,-0.938 0.636,-1.206 0.938,-1.273 0.301,-0.067 5.897,-0.269 6.132,-0.269 0.234,0 0.302,-0.167 0.302,-0.435 0,-0.269 0.033,-0.872 0.033,-0.872 0,0 5.998,0.805 11.661,-3.352 5.763,-4.658 6.199,-8.983 6.066,-9.72 -0.135,-0.738 0.167,-13.91 0.167,-13.91 0,0 0.268,-8.649 0.268,-9.319 0,-0.67 -0.604,-8.38 -10.689,-10.827 -2.748,-2.916 -8.645,-3.218 -10.59,-3.05 -0.065,-1.073 -0.334,-11.564 -0.334,-12.872 0,-1.307 0.134,-4.022 -2.58,-6.234 -2.714,-2.212 -8.612,-3.385 -11.727,-3.754 -3.117,-0.369 -4.959,-0.57 -5.663,-0.704 -0.704,-0.134 -2.882,-0.402 -3.887,-0.47 -1.006,-0.066 -1.039,-0.1 -0.939,-0.335 0.101,-0.234 0.838,-0.972 -1.474,-1.441 -2.312,-0.469 -7.439,-0.234 -8.243,0.034 -0.804,0.268 -1.407,0.737 -1.14,1.742 -1.641,0.202 -5.897,0.202 -9.013,0.503 -3.117,0.302 -6.568,0.738 -9.684,1.542 -3.117,0.805 -9.115,1.576 -12.801,1.81 -3.686,0.235 -8.879,0.369 -11.46,0.369 -2.58,0 -10.622,0.167 -15.481,0.838 -1.239,-0.704 -5.897,-0.737 -6.5,-0.671 -0.603,0.068 -1.307,0.302 -1.809,0.436 -0.503,0.134 -2.145,0.738 0.636,1.677 -3.15,1.374 -5.126,2.815 -5.562,6.201 -0.168,3.251 -0.604,13.574 -0.604,13.574 l -1.239,28.458 c 0,0 -0.805,16.325 -0.805,16.861 0.033,0.167 0.268,0.502 0.436,0.502 -0.469,0.402 -0.469,0.839 -0.469,1.106 0,0.268 0.066,1.341 1.072,1.341 1.005,0 8.88,0.168 8.88,0.168 l -0.101,7.207 c 0,0 -2.647,7.91 -3.417,11.362 -4.725,-0.334 -10.288,0.303 -11.963,8.112 0.067,6.133 0.368,26.312 0.403,30.2 0.033,3.888 1.875,7.375 3.886,9.218 2.01,1.843 4.423,2.648 6.099,2.749 -0.067,1.843 -0.336,12.938 -0.336,12.938 0,0 -0.669,1.106 0.034,1.676 z M 131.192,300.031 c 1.98,-0.614 3.679,-0.835 5.104,-0.835 3.714,0 5.551,1.506 5.551,1.506 0,0 0.57,36.703 0.537,39.82 -4.658,3.989 -8.076,3.855 -8.076,3.855 0,0 -0.067,-0.57 -0.101,-2.245 -0.033,-1.676 -0.402,-6.034 -1.139,-7.677 -0.736,-1.642 -1.374,-4.726 -1.474,-8.212 -0.1,-3.486 -0.367,-21.552 -0.402,-26.212"
         id="path176"
         inkscape:connector-curvature="0" /></clipPath><clipPath
       clipPathUnits="userSpaceOnUse"
       id="clipPath186"><path
         d="m 701.439,377.062 53.52,0 0,123.6 -53.52,0 0,-123.6 z"
         id="path188"
         inkscape:connector-curvature="0" /></clipPath><clipPath
       clipPathUnits="userSpaceOnUse"
       id="clipPath192"><path
         d="m 725.828,500.345 c -1.901,-0.082 -16.451,-0.289 -19.784,-0.516 -3.333,-0.226 -3.704,-0.511 -3.704,-0.511 0,0 -0.43,-0.014 -0.307,-0.966 l -0.312,-53.809 c 0,0 -1.038,-2.415 7.134,-3.16 8.716,-0.794 14.589,-1.285 14.589,-1.285 0,0 0.56,-1.353 0.997,-1.718 l -0.078,-0.331 c 0,0 -3.857,-0.081 -4.034,-1.267 -0.187,-1.254 -0.751,-9.417 -3.344,-17.342 -3.148,-9.627 -8.89,-18.27 -8.89,-18.27 0,0 -2.753,-4.532 -2.182,-6.211 0.572,-1.681 1.432,-3.547 2.444,-5.248 1.012,-1.7 5.203,-8.868 6.741,-9.79 1.919,-1.151 4.473,-2.256 11.268,-2.582 6.795,-0.327 11.418,1.638 12.734,2.506 1.315,0.868 3.605,5.34 3.605,5.34 0,0 2.719,5.751 3.989,9.451 l 1.633,5.783 c 0,0 1.473,3.603 -0.776,6.498 -1.594,2.051 -3.439,4.407 -3.439,4.407 0,0 -4.182,5.414 -5.642,8.578 -1.462,3.164 -3.321,8.562 -3.76,11.271 -0.439,2.709 -0.783,5.417 -0.783,5.417 0,0 -0.375,1.389 -2.894,1.385 l -0.037,0.479 c 0,0 0.726,0.863 0.841,1.347 0,0 13.185,-0.045 18.366,1.086 0,0 3.096,0.432 4.248,1.625 0,0 0.471,0.356 0.034,3.794 -0.308,2.429 -0.263,7.352 -0.263,7.352 l 0.116,42.098 0.224,2.519 c 0,0 0.126,0.771 -0.927,0.977 -1.01,0.197 -23.919,1.098 -27.464,1.098 l -0.074,0 c -0.115,0 -0.205,-0.002 -0.269,-0.005"
         id="path194"
         inkscape:connector-curvature="0" /></clipPath><clipPath
       clipPathUnits="userSpaceOnUse"
       id="clipPath204"><path
         d="m 643.806,359.245 53.76,0 0,123.119 -53.76,0 0,-123.119 z"
         id="path206"
         inkscape:connector-curvature="0" /></clipPath><clipPath
       clipPathUnits="userSpaceOnUse"
       id="clipPath210"><path
         d="m 672.778,481.96 c -13.651,0 -24.246,-1.187 -27.289,-1.938 0,0 -1.105,-0.27 -1.015,-0.913 l -0.313,-53.114 -0.115,-2.304 c 0,0 0.083,-0.202 0.505,-0.288 0.422,-0.084 5.8,-0.894 5.8,-0.894 l 14.744,-0.633 1.593,-0.059 c 0,0 0.567,-1.729 1.197,-2.247 l 0.096,-0.357 c 0,0 -3.174,-0.351 -3.325,-1.199 -0.15,-0.849 -1.359,-7.516 -2.039,-9.746 -0.68,-2.231 -2.886,-8.273 -4.272,-10.713 -1.386,-2.44 -5.406,-9.929 -5.406,-9.929 l -2.78,-4.516 c 0,0 -1.5,-1.776 -0.313,-4.789 1.187,-3.011 4.546,-9.957 6.205,-12.575 1.659,-2.618 1.932,-3.819 4.498,-4.717 2.566,-0.897 7.148,-1.597 10.021,-1.541 2.873,0.055 8.504,0.854 9.77,1.378 1.265,0.524 2.466,1.176 2.895,1.773 0.428,0.596 5.452,9.266 5.452,9.266 0,0 4.706,8.036 3.332,10.303 0,0 -0.582,1.231 -1.391,2.486 -3.447,4.499 -7.048,10.87 -9.156,16.222 -2.84,7.207 -3.208,16.58 -3.208,16.58 0,0 -0.024,1.616 -3.796,1.588 l 0.007,0.401 1.105,2.28 c 0,0 9.77,0.257 11.546,0.45 1.778,0.194 5.806,0.569 6.15,0.622 0.345,0.053 2.532,0.402 2.874,0.465 0.341,0.063 0.74,0.077 0.887,0.395 0.147,0.317 0.076,1.573 0.094,1.747 0.018,0.175 -0.15,12.13 -0.15,12.13 l -0.051,40.789 c 0,0 0.026,1.105 -0.217,1.288 -0.243,0.185 -0.385,0.676 -2.167,0.952 -1.781,0.276 -7.663,1.339 -21.461,1.357"
         id="path212"
         inkscape:connector-curvature="0" /></clipPath><clipPath
       clipPathUnits="userSpaceOnUse"
       id="clipPath222"><path
         d="m 722.479,273.837 52.32,0 0,119.039 -52.32,0 0,-119.039 z"
         id="path224"
         inkscape:connector-curvature="0" /></clipPath><clipPath
       clipPathUnits="userSpaceOnUse"
       id="clipPath228"><path
         d="m 751.013,392.57 c -0.311,-0.003 -15.35,-0.337 -16.554,-0.352 -1.204,-0.013 -9.744,-0.236 -10.713,-0.388 -0.969,-0.153 -0.817,-0.289 -1.027,-0.937 l 0.258,-53.079 c 0,0 0.734,-1.128 1.571,-1.387 0.19,-0.058 2.045,-0.495 3.142,-0.673 3.717,-0.602 10.726,-1.373 16.857,-1.573 0,0 0.324,-0.133 0.742,-0.62 l -0.207,-0.796 c 0,0 -2.228,0.006 -2.459,-1.382 -0.23,-1.389 -1.575,-10.884 -3.481,-15.085 -1.789,-3.945 -4.39,-9.801 -6.602,-13.749 -2.211,-3.949 -4.119,-6.956 -4.04,-7.995 0.08,-1.04 0.121,-2.836 1.027,-4.749 0.907,-1.914 3.635,-7.147 6.387,-11.205 0,0 1.288,-3.326 5.775,-3.93 16.901,-2.273 20.02,2.694 20.31,3.04 0.711,0.85 3.617,6.182 3.727,6.348 0.667,1.004 3.632,7.674 3.632,7.674 0,0 1.857,3.836 -0.045,6.727 -1.905,2.89 -5.776,8.602 -5.776,8.602 0,0 -3.651,6.36 -4.424,8.804 -0.773,2.444 -2.941,11.892 -3.152,14.647 0,0 -0.101,1.498 -0.705,1.841 -0.514,0.409 -2.517,0.594 -3.649,0.634 l -0.006,0.288 0.645,0.862 c 0,0 6.466,0.436 11.814,0.732 4.263,0.235 8.606,1.074 9.373,1.632 1.34,0.973 0.79,1.979 0.79,1.979 l -0.006,10.043 -0.186,39.237 -0.1,2.99 c 0,0 0.312,1.031 -1.109,1.144 -1.275,0.102 -7.078,0.701 -17.892,0.701 -1.24,0 -2.544,-0.008 -3.917,-0.025"
         id="path230"
         inkscape:connector-curvature="0" /></clipPath><clipPath
       clipPathUnits="userSpaceOnUse"
       id="clipPath240"><path
         d="m 666.356,257.74 52.8,0 0,119.04 -52.8,0 0,-119.04 z"
         id="path242"
         inkscape:connector-curvature="0" /></clipPath><clipPath
       clipPathUnits="userSpaceOnUse"
       id="clipPath246"><path
         d="m 669.36,375.57 c 0,0 -2.068,-0.481 -2.354,-0.638 0,0 -0.003,-0.779 -0.007,-2.152 0,-0.139 0.109,-0.253 0.109,-0.403 -0.034,-10.796 -0.27,-51.743 -0.27,-51.743 0,0 -0.567,-1.99 22.209,-3.002 l 0.207,-0.565 c 0,0 -3.279,-0.511 -3.318,-1.212 -0.087,-1.513 -1.244,-12.353 -6.986,-22.653 -5.743,-10.3 -5.728,-10.767 -5.728,-10.767 0,0 -2.667,-2.85 -0.77,-7.058 1.897,-4.209 4.741,-10.25 7.815,-14.03 0,0 2.379,-3.271 13.487,-3.122 0.176,0.036 8.647,0.307 10.763,2.493 0.153,0.019 2.819,3.801 6.181,10.894 0.123,0.143 3.445,7.042 2.524,9.148 -0.92,2.107 -4.453,7.069 -4.453,7.069 0,0 -5.821,8.416 -6.887,13.265 -1.418,5.095 -2.468,11.552 -2.624,13.086 0,0 -0.165,2.176 -1.105,2.355 -0.939,0.18 -2.27,0.418 -2.568,0.423 l -0.069,0.255 0.216,0.396 c 0,0 21.393,0.734 22.403,2.776 0.335,0.939 0.202,2.925 0.202,2.925 l -0.376,33.847 -0.062,15.923 c 0,0 0.284,1.308 -0.142,1.379 -0.426,0.07 -11.203,1.456 -16.058,1.343 -0.296,-0.008 -2.983,0.053 -6.715,0.113 -3.534,0.058 -8.007,0.115 -12.271,0.115 -5.791,0 -11.198,-0.105 -13.353,-0.46"
         id="path248"
         inkscape:connector-curvature="0" /></clipPath><clipPath
       clipPathUnits="userSpaceOnUse"
       id="clipPath258"><path
         d="m -1.22e-4,-0.003906 907.082002,0 0,1133.847006 -907.082002,0 0,-1133.847006 z"
         id="path260"
         inkscape:connector-curvature="0"
         style="clip-rule:evenodd" /></clipPath><clipPath
       clipPathUnits="userSpaceOnUse"
       id="clipPath264"><path
         d="m -1.22e-4,-0.003906 907.082002,0 0,1133.847006 -907.082002,0 0,-1133.847006 z"
         id="path266"
         inkscape:connector-curvature="0"
         style="clip-rule:evenodd" /></clipPath><clipPath
       clipPathUnits="userSpaceOnUse"
       id="clipPath270"><path
         d="m 0.029999,1133.843 907.020001,0 0,-1133.813 -907.020001,0 0,1133.813 z"
         id="path272"
         inkscape:connector-curvature="0" /></clipPath><clipPath
       clipPathUnits="userSpaceOnUse"
       id="clipPath504"><path
         d="m 167.024,187.829 469.678,0 0,216.238 -469.678,0 0,-216.238 z"
         id="path506"
         inkscape:connector-curvature="0" /></clipPath><clipPath
       clipPathUnits="userSpaceOnUse"
       id="clipPath510"><path
         d="m 231.162,403.752 c -5.724,-0.274 -15.431,-1.796 -16.746,-5.82 -1.314,-4.024 -1.425,-16.627 -1.425,-16.627 0,0 -5.686,0.496 -10.332,0.474 -4.648,-0.021 -8.012,-0.594 -10.215,-2.255 -2.202,-1.662 -19.962,-17.305 -22.091,-19.478 -2.128,-2.173 -2.988,-4.41 -3.088,-8.077 -0.099,-3.665 6.298,-97.187 6.296,-99.883 -0.004,-2.696 0.954,-4.632 2.018,-5.226 1.065,-0.594 2.732,-0.119 2.732,-0.119 l 5.819,-0.95 0.951,-17.932 c 0,0 -0.172,-1.815 4.632,-1.307 2.275,0.241 4.816,0.242 4.75,2.019 -0.066,1.777 -1.187,17.695 -1.187,17.695 0,0 4.327,-0.291 5.582,1.069 0,0 0.387,-0.729 1.662,-0.831 1.276,-0.101 260.031,0.014 263.545,-0.238 3.515,-0.251 5.227,0.594 5.227,0.594 0,0 9.958,-30.305 10.807,-31.947 0.849,-1.642 0.832,-2.632 2.138,-3.089 1.305,-0.457 5.938,-1.068 5.938,-1.068 l -0.118,-21.023 c 0,0 0.482,-1.612 4.988,-1.663 4.506,-0.049 4.988,1.545 4.988,1.545 l 0.238,21.497 108.552,0.712 -0.831,-20.547 c 0,0 -0.685,-1.894 4.157,-2.494 4.843,-0.599 6.175,1.662 6.175,1.662 l 0.951,20.904 c 0,0 0.403,0.365 1.901,0.239 1.496,-0.129 5.731,-0.435 6.888,1.068 1.157,1.503 1.306,2.613 1.306,2.613 0,0 2.292,24.262 2.02,25.416 -0.273,1.154 -0.357,2.257 -0.357,2.257 0,0 3.594,1.086 4.275,2.256 0.683,1.169 2.655,11.243 2.97,16.509 0.315,5.265 -0.664,7.706 -1.663,9.026 -0.999,1.318 -8.195,8.551 -8.195,8.551 0,0 3.587,68.357 3.682,71.498 0.095,3.141 -0.991,7.182 -2.851,8.314 -1.859,1.132 -27.495,18.881 -29.216,19.595 -1.723,0.715 -4.097,0.692 -4.751,0.713 -0.654,0.022 -13.065,0.12 -13.065,0.12 0,0 1.056,12.138 -0.119,15.202 -1.173,3.063 -7.299,6.248 -14.964,6.651 -7.665,0.401 -90.899,1.122 -95.014,0.474 -4.114,-0.647 -8.65,-0.997 -9.501,-4.394 0,0 -3.568,3.947 -9.264,4.394 -5.696,0.447 -97.528,1.469 -104.04,0.95 -6.51,-0.518 -8.242,-2.266 -9.857,-3.682 0,0 -2.494,3.243 -6.533,3.207 -1.891,-0.017 -22.645,0.355 -44.765,0.726 -21.655,0.365 -44.62,0.728 -52.469,0.728 -1.248,0 -2.113,-0.009 -2.531,-0.028"
         id="path512"
         inkscape:connector-curvature="0" /></clipPath><clipPath
       clipPathUnits="userSpaceOnUse"
       id="clipPath522"><path
         d="m -1.22e-4,-0.003906 907.082002,0 0,1133.847006 -907.082002,0 0,-1133.847006 z"
         id="path524"
         inkscape:connector-curvature="0"
         style="clip-rule:evenodd" /></clipPath><clipPath
       clipPathUnits="userSpaceOnUse"
       id="clipPath528"><path
         d="m -1.22e-4,-0.003906 907.082002,0 0,1133.847006 -907.082002,0 0,-1133.847006 z"
         id="path530"
         inkscape:connector-curvature="0"
         style="clip-rule:evenodd" /></clipPath><clipPath
       clipPathUnits="userSpaceOnUse"
       id="clipPath534"><path
         d="m 0.029999,1133.843 907.020001,0 0,-1133.813 -907.020001,0 0,1133.813 z"
         id="path536"
         inkscape:connector-curvature="0" /></clipPath><clipPath
       clipPathUnits="userSpaceOnUse"
       id="clipPath800"><path
         d="m -28.346,-28.354 963.775,0 0,1190.541 -963.775,0 0,-1190.541 z"
         id="path802"
         inkscape:connector-curvature="0"
         style="clip-rule:evenodd" /></clipPath><clipPath
       clipPathUnits="userSpaceOnUse"
       id="clipPath806"><path
         d="m -1.22e-4,-0.003906 907.082002,0 0,1133.847006 -907.082002,0 0,-1133.847006 z"
         id="path808"
         inkscape:connector-curvature="0"
         style="clip-rule:evenodd" /></clipPath><clipPath
       clipPathUnits="userSpaceOnUse"
       id="clipPath812"><path
         d="m -1.22e-4,-0.003906 907.082002,0 0,1133.847006 -907.082002,0 0,-1133.847006 z"
         id="path814"
         inkscape:connector-curvature="0"
         style="clip-rule:evenodd" /></clipPath><clipPath
       clipPathUnits="userSpaceOnUse"
       id="clipPath818"><path
         d="m 0.029999,1133.843 907.020001,0 0,-1133.813 -907.020001,0 0,1133.813 z"
         id="path820"
         inkscape:connector-curvature="0" /></clipPath><clipPath
       clipPathUnits="userSpaceOnUse"
       id="clipPath858"><path
         d="m -1.22e-4,-0.003906 907.082002,0 0,1133.847006 -907.082002,0 0,-1133.847006 z"
         id="path860"
         inkscape:connector-curvature="0"
         style="clip-rule:evenodd" /></clipPath><clipPath
       clipPathUnits="userSpaceOnUse"
       id="clipPath864"><path
         d="m -1.22e-4,-0.003906 907.082002,0 0,1133.847006 -907.082002,0 0,-1133.847006 z"
         id="path866"
         inkscape:connector-curvature="0"
         style="clip-rule:evenodd" /></clipPath><clipPath
       clipPathUnits="userSpaceOnUse"
       id="clipPath870"><path
         d="m 0.029999,1133.843 907.020001,0 0,-1133.813 -907.020001,0 0,1133.813 z"
         id="path872"
         inkscape:connector-curvature="0" /></clipPath></defs><sodipodi:namedview
     pagecolor="#ffffff"
     bordercolor="#666666"
     borderopacity="1"
     objecttolerance="10"
     gridtolerance="10"
     guidetolerance="10"
     inkscape:pageopacity="0"
     inkscape:pageshadow="2"
     inkscape:window-width="1920"
     inkscape:window-height="1017"
     id="namedview4"
     showgrid="false"
     fit-margin-top="0"
     fit-margin-left="0"
     fit-margin-right="0"
     fit-margin-bottom="0"
     inkscape:zoom="1.8836227"
     inkscape:cx="297.04116"
     inkscape:cy="69.823342"
     inkscape:window-x="-8"
     inkscape:window-y="-8"
     inkscape:window-maximized="1"
     inkscape:current-layer="g10" /><g
     id="g10"
     inkscape:groupmode="layer"
     inkscape:label="A"
     transform="matrix(1.25,0,0,-1.25,-195.13259,1378.175)"><g
       id="g5511"
       style="fill:#ff4b2a;fill-opacity:1"><path
         d="m 256.628,1075.847 c -18.625,0 -31.141,-11.746 -31.141,-29.229 0,-18.026 11.685,-29.228 30.497,-29.228 19.151,0 31.526,11.563 31.526,29.454 0,17.89 -11.833,29.003 -30.882,29.003 m 0.127,-48.218 c -9.191,0 -15.129,7.32 -15.129,18.652 0,11.925 5.847,19.333 15.258,19.333 8.937,0 14.489,-7.151 14.489,-18.659 0,-11.74 -5.737,-19.326 -14.618,-19.326"
         style="fill:#ff4b2a;fill-opacity:1;fill-rule:nonzero;stroke:none"
         id="path286"
         inkscape:connector-curvature="0" /><path
         d="m 505.857,1075.322 c -16.781,0 -23.629,-6.932 -23.629,-23.923 l 0,-1.31 c 0,-10.262 -0.257,-21.568 -0.63,-27.496 0,-0.014 -0.167,-3.631 -0.167,-3.631 l 16.864,0 -0.334,3.306 c -0.27,5.221 -0.406,10.153 -0.406,15.042 l 0,2.902 0.11,8.25 0,2.937 c 0.272,5.876 2.306,12.917 10.45,12.917 2.931,0 6.891,-0.865 7.825,-1.408 l 0.859,-0.5 1.702,11.048 -0.582,0.16 c -4.554,1.258 -9.342,1.706 -12.062,1.706"
         style="fill:#ff4b2a;fill-opacity:1;fill-rule:nonzero;stroke:none"
         id="path290"
         inkscape:connector-curvature="0" /><path
         d="m 401.412,1064.428 1.567,10.902 -17.431,0 0,3.728 c 0.364,8.054 3.659,12.152 9.797,12.152 3.813,0 5.722,0 10.868,-1.433 l 0.75,-0.207 1.525,10.854 -0.551,0.168 c -4.146,1.279 -11.827,1.948 -14.781,1.948 -14.312,0 -22.564,-8.323 -23.23,-23.436 -0.002,-0.03 -0.008,-10.273 -0.008,-10.273 l 0.131,-19.757 -0.25,-24.375 -0.263,-14.722 0,-3.374 16.268,0 0,3.469 -0.386,14.305 c 0,0.01 -0.125,15.717 -0.125,15.717 l 0,12.691 c 0,0 0.138,9.103 0.176,11.643"
         style="fill:#ff4b2a;fill-opacity:1;fill-rule:nonzero;stroke:none"
         id="path294"
         inkscape:connector-curvature="0" /><path
         d="m 437.953,1075.847 c -18.627,0 -31.141,-11.746 -31.141,-29.229 0,-18.026 11.687,-29.228 30.497,-29.228 19.15,0 31.525,11.563 31.525,29.454 0,17.89 -11.834,29.003 -30.881,29.003 m 0.121,-48.218 c -9.189,0 -15.127,7.32 -15.127,18.652 0,11.925 5.847,19.333 15.263,19.333 8.933,0 14.483,-7.151 14.483,-18.659 0,-11.74 -5.738,-19.326 -14.619,-19.326"
         style="fill:#ff4b2a;fill-opacity:1;fill-rule:nonzero;stroke:none"
         id="path298"
         inkscape:connector-curvature="0" /><path
         d="m 353.238,1032.811 0,9.312 0.127,9.322 c 0,14.932 -8.469,23.842 -22.654,23.842 l -9.328,0 c -14.191,0 -22.662,-8.91 -22.662,-23.834 0,0.01 -0.052,-3.361 -0.052,-3.361 0,-14.619 0,-18.088 -0.641,-28.41 l -0.045,-0.72 16.774,0 -0.154,4.3 -0.378,11.805 -0.257,11.568 0,1.334 c 0,6.357 0.41,8.221 1.73,10.943 1.607,3.318 5.619,5.464 10.221,5.464 4.6,0 8.613,-2.146 10.219,-5.464 1.321,-2.722 1.733,-4.586 1.733,-10.943 l 0,-1.351 -0.259,-11.56 -0.378,-11.798 -0.155,-4.298 16.449,0 -0.177,3.842 c 0.014,-0.13 -0.113,10.007 -0.113,10.007"
         style="fill:#ff4b2a;fill-opacity:1;fill-rule:nonzero;stroke:none"
         id="path302"
         inkscape:connector-curvature="0" /><path
         d="m 686.55,1032.926 0.019,3.015 0,3.934 c -0.002,-0.014 0.25,11.691 0.25,11.691 0,10.108 -2.436,15.839 -8.402,19.787 -3.76,2.607 -9.19,4.049 -15.284,4.049 -8.438,0 -15.495,-2.613 -20.071,-7.275 -3.971,4.651 -9.881,7.159 -17.238,7.159 l -9.326,0 c -14.191,0 -22.663,-8.908 -22.663,-23.833 0,0.01 -0.053,-3.356 -0.053,-3.356 0,-14.623 0,-18.093 -0.64,-28.415 l -0.046,-0.72 16.776,0 -0.153,4.301 -0.38,11.804 -0.257,11.569 0,1.334 c 0,6.357 0.411,8.22 1.733,10.941 1.606,3.32 5.616,5.465 10.218,5.465 4.602,0 8.614,-2.145 10.22,-5.465 1.321,-2.721 1.729,-4.584 1.729,-10.941 l 0,-1.351 -0.257,-11.56 -0.377,-11.799 -0.154,-4.298 16.45,0 -0.178,3.843 c 0.012,-0.13 -0.115,10.003 -0.115,10.003 l 0.003,9.316 0.103,10.29 c 0.221,2.482 0.668,3.9 1.415,5.625 0.702,1.538 1.656,2.826 2.91,3.92 1.805,1.681 4.495,2.639 7.392,2.639 4.773,0 8.944,-2.852 10.146,-6.929 0.608,-2.236 0.741,-4.361 0.741,-11.949 0,-8.822 -0.119,-14.837 -0.767,-23.213 0,0.01 -0.254,-2.805 -0.254,-2.805 l -0.068,-0.74 16.885,0 -0.177,3.188 c 0,-0.01 -0.13,10.776 -0.13,10.776"
         style="fill:#ff4b2a;fill-opacity:1;fill-rule:nonzero;stroke:none"
         id="path306"
         inkscape:connector-curvature="0" /><path
         d="m 752.696,1054.668 -0.004,1.169 c 0,8.975 -2.838,13.878 -9.79,16.924 -4.248,1.85 -8.751,2.641 -15.06,2.641 -7.367,0 -15.464,-1.146 -21.668,-3.067 l -0.553,-0.173 1.629,-10.992 0.807,0.339 c 5.894,2.461 11.847,3.765 17.215,3.765 8.921,0 12.559,-3.223 12.559,-11.123 0,0 -0.046,-0.753 -0.08,-1.326 -12.495,0.654 -21.895,-0.174 -27.142,-2.435 -7.353,-3.168 -11.082,-8.141 -11.082,-14.784 0,-6.852 4.414,-13.194 11.243,-16.16 7.562,-3.279 18.53,-2.458 22.896,-1.95 3.563,0.414 15.399,2.472 18.007,11.556 1.15,3.996 1.054,20.27 1.023,25.616 m -14.865,-11.413 0,-1.363 c 0,-5.233 -0.165,-7.077 -1.268,-9.21 -0.653,-1.256 -1.772,-2.307 -3.23,-3.036 -2.886,-1.442 -5.188,-1.723 -8.191,-1.723 -3.176,0 -6.261,1.121 -8.05,2.927 -2.224,2.24 -1.924,5.744 -0.514,7.902 2.131,3.267 7.257,4.598 17.694,4.598 0,0 2.638,-0.07 3.559,-0.095"
         style="fill:#ff4b2a;fill-opacity:1;fill-rule:nonzero;stroke:none"
         id="path310"
         inkscape:connector-curvature="0" /><path
         d="m 578.579,1055.837 c 0,8.975 -2.838,13.879 -9.792,16.924 -4.245,1.851 -8.748,2.642 -15.056,2.642 -7.365,0 -15.467,-1.147 -21.666,-3.068 l -0.558,-0.173 1.632,-10.991 0.805,0.338 c 5.896,2.461 11.849,3.766 17.218,3.766 8.919,0 12.557,-3.223 12.557,-11.124 0,0 -0.048,-0.752 -0.082,-1.325 -12.495,0.653 -21.896,-0.174 -27.138,-2.436 -7.354,-3.168 -11.082,-8.141 -11.082,-14.783 0,-6.853 4.411,-13.195 11.237,-16.16 7.563,-3.284 18.533,-2.458 22.894,-1.95 3.565,0.413 15.4,2.469 18.014,11.556 1.146,3.995 1.052,20.269 1.021,25.615 l -0.004,1.169 z m -14.86,-12.581 0,-1.363 c 0,-5.234 -0.164,-7.078 -1.268,-9.211 -0.655,-1.254 -1.774,-2.303 -3.231,-3.035 -2.886,-1.442 -5.187,-1.724 -8.192,-1.724 -3.177,0 -6.262,1.121 -8.051,2.927 -2.219,2.241 -1.922,5.744 -0.513,7.904 2.132,3.266 7.258,4.597 17.694,4.597 0,0 2.639,-0.07 3.561,-0.095"
         style="fill:#ff4b2a;fill-opacity:1;fill-rule:nonzero;stroke:none"
         id="path314"
         inkscape:connector-curvature="0" /><path
         d="m 203.844,1090.602 c 7.265,0.227 14.594,-1.342 22.408,-4.794 l 0.729,-0.323 0,13.497 -0.213,0.064 c -7.86,2.422 -16.486,3.51 -25.638,3.224 -14.57,-0.452 -26.468,-5.158 -34.409,-13.612 -7.314,-7.78 -10.975,-18.503 -10.587,-31.005 0.371,-11.964 4.44,-21.929 11.764,-28.812 8.24,-7.743 20.482,-11.591 35.406,-11.126 5.433,0.167 10.377,0.753 15.562,1.839 l 0.792,0.166 -4.35,10.858 -0.559,-0.118 c -3.167,-0.676 -6.18,-1.073 -8.708,-1.152 -18.553,-0.572 -29.098,9.631 -29.694,28.734 -0.604,19.54 9.934,32.018 27.497,32.56"
         style="fill:#ff4b2a;fill-opacity:1;fill-rule:nonzero;stroke:none"
         id="path318"
         inkscape:connector-curvature="0" /></g></g></svg>