<?xml version="1.0" encoding="utf-8"?>

<!-- The icon can be used freely in both personal and commercial projects with no attribution required, but always appreciated. 
You may NOT sub-license, resell, rent, redistribute or otherwise transfer the icon without express written permission from iconmonstr.com -->

<!DOCTYPE svg PUBLIC "-//W3C//DTD SVG 1.1//EN" "http://www.w3.org/Graphics/SVG/1.1/DTD/svg11.dtd">
<svg version="1.1" xmlns="http://www.w3.org/2000/svg" xmlns:xlink="http://www.w3.org/1999/xlink" x="0px" y="0px"
	 width="50px" height="50px" viewBox="0 0 512 512" enable-background="new 0 0 512 512" xml:space="preserve">
<path id="time-12-icon" d="M361.629,172.206c15.555-19.627,24.121-44.229,24.121-69.273V50h-259.5v52.933
	c0,25.044,8.566,49.646,24.121,69.273l50.056,63.166c9.206,11.617,9.271,27.895,0.159,39.584l-50.768,65.13
	c-15.198,19.497-23.568,43.85-23.568,68.571V462h259.5v-53.343c0-24.722-8.37-49.073-23.567-68.571l-50.769-65.13
	c-9.112-11.689-9.047-27.967,0.159-39.584L361.629,172.206z M279.866,299.548l50.768,65.13
	c11.412,14.64,15.116,29.947,15.116,47.321h-11.178c-6.36-23.509-50.051-53.485-79.062-78.471
	c-29.548,25.133-72.108,55.111-78.233,78.471H166.25c0-17.261,3.645-32.605,15.115-47.321l50.769-65.13
	c20.491-26.288,20.345-62.895-0.356-89.02l-50.057-63.166c-11.538-14.56-15.471-30.096-15.471-47.361h179.5
	c0,17.149-3.872,32.727-15.471,47.361l-50.056,63.166C259.521,236.652,259.374,273.259,279.866,299.548z"/>
</svg>
